garoa-hacker-clube_bold.sfdir
StartChar: exclam
Encoding: 33 33 5
Width: 307
Flags: MW
HStem: 0 187<158 210> 743 20G<158 210>
VStem: 90 187<68 119.5 285 670>
LayerCount: 2
Back
Fore
SplineSet
184 187 m 0
 236 187 277 145 277 94 c 0
 277 42 236 0 184 0 c 0
 132 0 90 42 90 94 c 0
 90 145 132 187 184 187 c 0
184 763 m 0
 236 763 277 721 277 670 c 2
 277 285 l 2
 277 233 236 191 184 191 c 0
 132 191 90 233 90 285 c 2
 90 670 l 2
 90 721 132 763 184 763 c 0
EndSplineSet
EndChar
StartChar: quotedbl
Encoding: 34 34 146
Width: 474
Flags: MW
HStem: 344 21G<98 149.5 324.5 376> 743 20G<98 149.5 324.5 376>
VStem: 30 187<437 669> 257 187<437 669>
LayerCount: 2
Back
Fore
SplineSet
124 763 m 0
 175 763 217 721 217 669 c 2
 217 437 l 2
 217 385 175 344 124 344 c 0
 72 344 30 385 30 437 c 2
 30 669 l 2
 30 721 72 763 124 763 c 0
350 763 m 0
 402 763 444 721 444 669 c 2
 444 437 l 2
 444 385 402 344 350 344 c 0
 299 344 257 385 257 437 c 2
 257 669 l 2
 257 721 299 763 350 763 c 0
EndSplineSet
EndChar
StartChar: numbersign
Encoding: 35 35 9
Width: 681
Flags: MW
HStem: 99 188<68 114 94 100 302 349 94 287> 477 187<129 144 139 317 332 379 581 587>
VStem: 100 186<86 99> 121 188 145 187<664 677> 349 187<86 99> 371 187 395 186<664 677>
LayerCount: 2
Back
Fore
SplineSet
587 664 m 2xd2
 639 664 681 622 681 570 c 0
 681 519 639 477 587 477 c 2
 566 477 l 1
 551 286 l 1
 598 281 635 241 635 193 c 0
 635 141 593 99 542 99 c 2
 537 99 l 1
 536 86 l 2
 532 35 487 -4 435 1 c 0
 384 5 346 49 349 99 c 1xd4
 287 99 l 1
 286 86 l 2
 282 35 237 -4 186 1 c 0
 135 5 96 49 100 99 c 1xe2
 94 99 l 2
 42 99 0 141 0 193 c 0
 0 245 42 287 94 287 c 2
 114 287 l 1
 129 477 l 1
 82 482 46 522 46 570 c 0
 46 622 87 664 139 664 c 2
 144 664 l 1
 145 677 l 2
 149 728 194 767 246 763 c 0
 297 759 335 715 332 664 c 1xca
 393 664 l 1
 395 677 l 2
 399 728 444 767 495 763 c 0
 546 759 584 715 581 664 c 1xd1
 587 664 l 2xd2
364 287 m 1
 379 477 l 1
 317 477 l 1
 302 287 l 1
 364 287 l 1
EndSplineSet
EndChar
StartChar: dollar
Encoding: 36 36 10
Width: 553
Flags: MW
HStem: -102 21G<255 307> 321 187<269 301.5> 845 20G<255 307>
VStem: 18 187<224.5 247 224.5 251.5> 51 187<539 562.5 539 597.5> 187 187<-8 0 -34 0 761 772> 356 187<224.5 266>
LayerCount: 2
Back
Fore
SplineSet
543 245 m 0xea
 543 134 473 38 374 0 c 1
 374 -8 l 2
 374 -60 333 -102 281 -102 c 0
 229 -102 187 -60 187 -8 c 2
 187 0 l 1xe4
 89 38 18 134 18 245 c 0
 18 258 19 270 21 282 c 0
 28 333 75 369 127 362 c 0
 178 354 213 307 206 256 c 0
 206 252 205 249 205 245 c 0xf2
 205 204 239 170 281 170 c 0
 322 170 356 204 356 245 c 0
 356 287 322 321 281 321 c 0
 154 321 51 424 51 551 c 0xea
 51 644 107 725 187 761 c 1
 187 772 l 2
 187 823 229 865 281 865 c 0
 333 865 374 823 374 772 c 2
 374 761 l 1xe4
 440 731 490 672 506 599 c 0
 517 548 484 498 434 488 c 0
 383 477 334 509 323 560 c 0
 319 579 301 594 281 594 c 0
 257 594 238 574 238 551 c 0
 238 527 257 508 281 508 c 0
 425 508 543 390 543 245 c 0xea
EndSplineSet
EndChar
StartChar: percent
Encoding: 37 37 11
Width: 662
Flags: MW
HStem: -17 187<419 443.5 419 495> 594 187<218 242>
VStem: 0 187<538 562 538 613.5> 475 187<201.5 226>
LayerCount: 2
Back
Fore
SplineSet
490 437 m 1
 589 410 662 320 662 214 c 0
 662 86 559 -17 431 -17 c 0
 346 -17 271 29 231 99 c 1
 180 31 l 2
 148 -10 90 -18 49 14 c 0
 8 45 0 104 31 145 c 2
 171 327 l 1
 72 353 0 443 0 550 c 0
 0 677 103 781 230 781 c 0
 315 781 390 734 430 665 c 1
 477 726 l 2
 508 767 567 775 608 744 c 0
 649 712 657 654 625 613 c 2
 490 437 l 1
230 594 m 0
 206 594 187 574 187 550 c 0
 187 526 206 506 230 506 c 0
 254 506 274 526 274 550 c 0
 274 574 254 594 230 594 c 0
431 170 m 0
 456 170 475 189 475 214 c 0
 475 238 456 257 431 257 c 0
 407 257 388 238 388 214 c 0
 388 189 407 170 431 170 c 0
EndSplineSet
EndChar
StartChar: ampersand
Encoding: 38 38 12
Width: 989
Flags: MW
HStem: -220 187<326.5 425.5 326.5 469.5>
VStem: 10 187<96.5 188 96.5 198.5> 359 187<551 551 551 552 551.5 552>
LayerCount: 2
Back
Fore
SplineSet
804 491 m 0
 845 522 904 515 935 474 c 0
 973 425 989 364 981 303 c 0
 973 242 942 187 893 150 c 0
 848 114 793 99 739 102 c 1
 718 -79 563 -220 376 -220 c 0
 174 -220 10 -56 10 146 c 0
 10 251 55 347 128 415 c 1
 101 452 86 496 84 542 c 0
 82 604 104 663 146 708 c 0
 188 753 246 779 307 781 c 0
 435 786 542 686 546 558 c 0
 546 556 546 552 546 549 c 0
 546 497 504 456 452 456 c 0
 400 457 359 499 359 551 c 1
 359 551 l 1
 359 551 359 551 359 552 c 0
 358 576 338 595 314 594 c 0
 298 594 288 585 283 580 c 0
 279 575 271 564 271 549 c 0
 272 533 280 523 285 518 c 0
 290 513 301 506 317 506 c 0
 365 508 407 472 413 424 c 0
 419 376 387 331 339 321 c 0
 257 304 197 230 197 146 c 0
 197 47 277 -33 376 -33 c 0
 475 -33 555 47 555 146 c 0
 555 167 551 188 544 207 c 1
 532 210 518 208 508 199 c 0
 495 190 492 177 491 170 c 0
 490 163 490 150 500 138 c 0
 531 97 524 38 483 7 c 0
 442 -25 383 -17 352 23 c 0
 314 72 297 133 305 194 c 0
 313 255 344 310 393 348 c 0
 494 425 640 407 717 306 c 0
 732 287 760 283 779 298 c 0
 792 307 795 320 796 327 c 0
 797 334 797 347 787 359 c 0
 755 400 763 459 804 491 c 0
EndSplineSet
EndChar
StartChar: quotesingle
Encoding: 39 39 147
Width: 247
Flags: MW
HStem: 344 21G<97.5 149> 743 20G<97.5 149>
VStem: 30 187<438 670>
LayerCount: 2
Back
Fore
SplineSet
123 344 m 0
 72 344 30 386 30 438 c 2
 30 670 l 2
 30 722 72 763 123 763 c 0
 175 763 217 722 217 670 c 2
 217 438 l 2
 217 386 175 344 123 344 c 0
EndSplineSet
EndChar
StartChar: parenleft
Encoding: 40 40 14
Width: 390
Flags: MW
HStem: -18 187<265.5 286 286 286> 593 187<265.5 286 286 286>
VStem: 24 187<244 518>
LayerCount: 2
Back
Fore
SplineSet
286 169 m 0
 338 169 380 127 380 76 c 0
 380 24 338 -18 286 -18 c 1
 286 -18 l 1
 142 -18 24 100 24 244 c 2
 24 518 l 2
 24 663 142 780 286 780 c 1
 286 780 l 1
 338 780 380 738 380 687 c 0
 380 635 338 593 286 593 c 1
 286 593 l 1
 245 593 211 559 211 518 c 2
 211 244 l 2
 211 203 245 169 286 169 c 0
EndSplineSet
EndChar
StartChar: parenright
Encoding: 41 41 15
Width: 390
Flags: MW
HStem: -18 187<78 104 104 104> 593 187<104 104 104 124.5>
VStem: 179 187<244 518>
LayerCount: 2
Back
Fore
SplineSet
104 593 m 0
 52 593 10 635 10 687 c 0
 10 738 52 780 104 780 c 1
 104 780 l 1
 248 780 366 663 366 518 c 2
 366 244 l 2
 366 100 248 -18 104 -18 c 1
 104 -18 l 1
 52 -18 10 24 10 76 c 0
 10 127 52 169 104 169 c 1
 104 169 l 1
 145 169 179 203 179 244 c 2
 179 518 l 2
 179 559 145 593 104 593 c 0
EndSplineSet
EndChar
StartChar: asterisk
Encoding: 42 42 13
Width: 548
Flags: MW
HStem: 743 20G<248 300>
VStem: 180 188<614 670 614 695.5>
LayerCount: 2
Back
Fore
SplineSet
538 571 m 0
 554 522 527 470 478 454 c 2
 425 436 l 1
 458 392 l 2
 488 350 479 291 437 261 c 0
 395 231 337 240 307 282 c 2
 274 326 l 1
 241 282 l 2
 211 240 153 231 111 261 c 0
 69 291 60 350 90 392 c 2
 123 436 l 1
 70 454 l 2
 21 470 -6 522 10 571 c 0
 26 621 79 647 128 631 c 2
 180 614 l 1
 180 670 l 2
 180 721 222 763 274 763 c 0
 326 763 368 721 368 670 c 2
 368 614 l 1
 420 631 l 2
 469 647 522 621 538 571 c 0
EndSplineSet
EndChar
StartChar: plus
Encoding: 43 43 22
Width: 549
Flags: MW
HStem: -7 21G<248.5 300> 164 187<77.5 181 103 181 368 445> 502 20G<248.5 300>
VStem: 181 187<86 164 60.5 164 351 428>
LayerCount: 2
Back
Fore
SplineSet
445 351 m 2
 497 351 539 309 539 257 c 0
 539 206 497 164 445 164 c 2
 368 164 l 1
 368 86 l 2
 368 35 326 -7 274 -7 c 0
 223 -7 181 35 181 86 c 2
 181 164 l 1
 103 164 l 2
 52 164 10 206 10 257 c 0
 10 309 52 351 103 351 c 2
 181 351 l 1
 181 428 l 2
 181 480 223 522 274 522 c 0
 326 522 368 480 368 428 c 2
 368 351 l 1
 445 351 l 2
EndSplineSet
EndChar
StartChar: comma
Encoding: 44 44 158
Width: 227
Flags: MW
HStem: 167 20G<87.5 139>
VStem: 20 187<85 119.5 85 119.5>
LayerCount: 2
Back
Fore
SplineSet
193 44 m 2
 142 -42 l 1
 142 -42 l 1
 127 -69 92 -78 65 -63 c 0
 38 -47 29 -12 44 15 c 2
 50 25 l 1
 31 42 20 66 20 94 c 0
 20 145 62 187 113 187 c 0
 165 187 207 145 207 94 c 0
 207 76 202 59 193 44 c 2
EndSplineSet
EndChar
StartChar: hyphen
Encoding: 45 45 21
Width: 402
Flags: MW
HStem: 319 187<67.5 93 93 309>
LayerCount: 2
Back
Fore
SplineSet
93 319 m 2
 42 319 0 361 0 413 c 0
 0 464 42 506 93 506 c 1
 93 506 l 1
 309 506 l 1
 309 506 l 1
 360 506 402 464 402 413 c 0
 402 361 360 319 309 319 c 1
 309 319 l 1
 93 319 l 2
EndSplineSet
EndChar
StartChar: period
Encoding: 46 46 159
Width: 237
Flags: MW
HStem: 0 187<88 140>
VStem: 20 187<67 119>
LayerCount: 2
Back
Fore
SplineSet
207 93 m 0
 207 41 166 0 114 0 c 0
 62 0 20 41 20 93 c 0
 20 145 62 187 114 187 c 0
 166 187 207 145 207 93 c 0
EndSplineSet
EndChar
StartChar: slash
Encoding: 47 47 154
Width: 378
Flags: W
LayerCount: 2
Back
Fore
SplineSet
313 764 m 0
 363 748 389 695 373 646 c 2
 183 64 l 2
 167 15 114 -11 65 5 c 0
 16 21 -11 74 5 123 c 2
 195 704 l 2
 211 753 264 780 313 764 c 0
EndSplineSet
EndChar
StartChar: one
Encoding: 49 49 29
Width: 355
Flags: MW
HStem: -6 21G
VStem: 137 187
LayerCount: 2
Back
Fore
SplineSet
231 0 m 0
 180 0 138 41 138 93 c 2
 138 449 l 1
 102 430 57 435 27 465 c 0
 -9 501 -9 561 27 597 c 2
 165 735 l 2
 192 762 232 770 267 755 c 0
 302 741 325 707 325 669 c 2
 325 93 l 2
 325 41 283 0 231 0 c 0
EndSplineSet
EndChar
StartChar: two
Encoding: 50 50 30
Width: 523
Flags: MW
HStem: 0 187<96 400 215 400 215 400> 319 187<263 290.5 211.5 342.5> 576 187<134 281 160 281>
VStem: 28 187<187 253 187 253 187 322.5> 316 187<531.5 550.5>
LayerCount: 2
Back
Fore
SplineSet
400 187 m 2
 452 187 494 145 494 93 c 0
 494 42 452 0 400 0 c 2
 122 0 l 2
 70 0 28 42 28 93 c 2
 28 253 l 2
 28 392 142 506 281 506 c 0
 300 506 316 522 316 541 c 0
 316 560 300 576 281 576 c 2
 160 576 l 2
 108 576 66 617 66 669 c 0
 66 721 108 763 160 763 c 2
 281 763 l 2
 404 763 503 663 503 541 c 0
 503 418 404 319 281 319 c 0
 245 319 215 289 215 253 c 2
 215 187 l 1
 400 187 l 2
EndSplineSet
EndChar
StartChar: three
Encoding: 51 51 31
Width: 563
Flags: MW
HStem: -18 188<261.5 302.5 261.5 354> 319 187<255 293 255 301.5> 594 187<268 292.5>
VStem: 20 187<223.5 270 223.5 270> 49 188<548.5 550 548 613.5> 187 20 324 188<538 562> 356 187<223.5 264.5>
LayerCount: 2
Back
Fore
SplineSet
473 422 m 1xea
 517 375 543 313 543 244 c 0
 543 100 426 -18 282 -18 c 0
 138 -18 20 100 20 244 c 0xf1
 20 296 62 337 114 337 c 0
 166 337 207 296 207 244 c 0
 207 203 241 170 282 170 c 0
 323 170 356 203 356 244 c 0
 356 285 322 319 281 319 c 0
 229 319 187 361 187 412 c 0xe5
 187 464 229 506 281 506 c 0
 305 506 324 526 324 550 c 0
 324 574 305 594 280 594 c 0
 256 594 237 574 237 550 c 0
 237 549 237 548 237 548 c 2
 239 497 198 453 147 451 c 0
 95 449 52 489 50 541 c 0
 49 544 49 547 49 550 c 0
 49 677 153 781 280 781 c 0
 408 781 512 677 512 550 c 0
 512 503 497 459 473 422 c 1xea
EndSplineSet
EndChar
StartChar: four
Encoding: 52 52 32
Width: 527
Flags: MW
HStem: -6 21G 168 187<83 310 247 310 247 310>
VStem: 310 187<93 168 168 168 355 456>
LayerCount: 2
Back
Fore
SplineSet
404 550 m 0
 455 550 497 508 497 456 c 2
 497 93 l 2
 497 41 455 0 404 0 c 0
 352 0 310 41 310 93 c 2
 310 168 l 1
 99 168 l 2
 67 168 37 184 20 212 c 0
 2 239 1 273 14 302 c 2
 210 709 l 2
 232 756 288 776 335 753 c 0
 381 731 401 675 379 628 c 2
 247 355 l 1
 310 355 l 1
 310 456 l 2
 310 508 352 550 404 550 c 0
EndSplineSet
EndChar
StartChar: five
Encoding: 53 53 33
Width: 563
Flags: MW
HStem: -18 188<261 302.5 261 354> 319 187<214.5 282 276 282> 576 187<240 410 240 240>
VStem: 20 187<223.5 245.5 223.5 249.5> 53 187<541 576 531.5 669 531.5 695> 356 187<223.5 264.5>
LayerCount: 2
Back
Fore
SplineSet
282 506 m 2xec
 426 506 543 388 543 244 c 0
 543 100 426 -18 282 -18 c 0
 137 -18 20 100 20 244 c 0
 20 255 21 266 22 277 c 0
 28 328 75 364 126 358 c 0
 178 351 214 305 208 253 c 0
 207 250 207 247 207 244 c 0xf4
 207 203 240 170 282 170 c 0
 323 170 356 203 356 244 c 0
 356 285 323 319 282 319 c 2
 276 319 l 2
 153 319 53 418 53 541 c 2
 53 669 l 2
 53 721 95 763 147 763 c 2
 410 763 l 2
 462 763 504 721 504 669 c 0
 504 617 462 576 410 576 c 2
 240 576 l 1
 240 541 l 2
 240 522 256 506 276 506 c 2
 282 506 l 2xec
EndSplineSet
EndChar
StartChar: six
Encoding: 54 54 34
Width: 568
Flags: MW
HStem: -18 188<265.5 306.5 265.5 358> 319 187<273 306.5> 593 188<265.5 302.5>
VStem: 24 187<223.5 245 253 264.5 223.5 519> 361 187<223.5 264.5>
LayerCount: 2
Back
Fore
SplineSet
286 506 m 0
 430 506 548 388 548 244 c 0
 548 100 430 -18 286 -18 c 0
 142 -18 24 100 24 244 c 0
 24 246 24 248 25 250 c 0
 24 251 24 252 24 253 c 2
 24 519 l 2
 24 663 142 781 286 781 c 0
 403 781 506 702 538 590 c 0
 552 540 523 489 473 475 c 0
 424 461 372 490 358 539 c 0
 349 571 319 593 286 593 c 0
 245 593 212 560 212 519 c 2
 212 495 l 1
 235 502 260 506 286 506 c 0
286 170 m 0
 327 170 361 203 361 244 c 0
 361 285 327 319 286 319 c 0
 245 319 211 285 211 244 c 0
 211 203 245 170 286 170 c 0
EndSplineSet
EndChar
StartChar: seven
Encoding: 55 55 35
Width: 466
Flags: MW
HStem: 576 187
LayerCount: 2
Back
Fore
SplineSet
450 720 m 0
 467 693 470 660 457 631 c 2
 202 55 l 2
 186 20 152 0 116 0 c 0
 104 0 91 2 78 8 c 0
 31 29 10 84 31 131 c 2
 228 575 l 1
 94 575 l 2
 42 575 0 617 0 669 c 0
 0 721 42 762 94 762 c 2
 372 762 l 2
 403 762 433 746 450 720 c 0
EndSplineSet
EndChar
StartChar: eight
Encoding: 56 56 36
Width: 563
Flags: MW
HStem: -18 188<261.5 302.5 261.5 354> 319 187<270 294 270 302.5> 593 187<270 294>
VStem: 20 187<223.5 264.5 223.5 278.5> 51 187<537 561.5 537 613> 325 187<537 561.5> 356 187<223.5 264.5>
LayerCount: 2
Back
Fore
SplineSet
474 422 m 1xec
 517 375 543 313 543 244 c 0
 543 100 426 -18 282 -18 c 0
 137 -18 20 100 20 244 c 0xf2
 20 313 46 375 90 422 c 1
 65 458 51 502 51 549 c 0
 51 677 154 780 282 780 c 0
 409 780 512 677 512 549 c 0
 512 502 498 458 474 422 c 1xec
282 593 m 0
 258 593 238 574 238 549 c 0
 238 525 258 506 282 506 c 0
 306 506 325 525 325 549 c 0xec
 325 574 306 593 282 593 c 0
282 170 m 0
 323 170 356 203 356 244 c 0
 356 285 323 319 282 319 c 0
 241 319 207 285 207 244 c 0xf2
 207 203 241 170 282 170 c 0
EndSplineSet
EndChar
StartChar: nine
Encoding: 57 57 37
Width: 570
Flags: MW
HStem: -18 187<265.5 304.5 265.5 356> 268 187<270 301> 593 187<270 308>
VStem: 33 187<505 543 505 594.5> 359 187<244 277 277 277 505 518 518 521 521 524>
LayerCount: 2
Back
Fore
SplineSet
546 524 m 0
 546 523 546 522 546 521 c 0
 546 520 546 519 546 518 c 2
 546 244 l 2
 546 99 428 -18 284 -18 c 0
 156 -18 47 73 26 199 c 0
 17 250 51 298 102 307 c 0
 153 316 201 282 210 231 c 0
 216 195 247 169 284 169 c 0
 325 169 359 203 359 244 c 2
 359 277 l 1
 336 271 313 268 289 268 c 0
 148 268 33 383 33 524 c 0
 33 665 148 780 289 780 c 0
 431 780 546 665 546 524 c 0
289 455 m 0
 327 455 359 486 359 524 c 0
 359 562 327 593 289 593 c 0
 251 593 220 562 220 524 c 0
 220 486 251 455 289 455 c 0
EndSplineSet
EndChar
StartChar: colon
Encoding: 58 58 160
Width: 237
Flags: MW
HStem: 0 187<101.5 126> 261 187<101.5 126>
VStem: 20 187<81.5 106 342.5 367>
LayerCount: 2
Back
Fore
SplineSet
114 187 m 0
 138 187 163 177 180 160 c 0
 197 143 207 118 207 94 c 0
 207 69 197 45 180 28 c 0
 163 10 138 0 114 0 c 0
 89 0 65 10 48 28 c 0
 30 45 20 69 20 94 c 0
 20 118 30 143 48 160 c 0
 65 177 89 187 114 187 c 0
114 448 m 0
 138 448 163 438 180 421 c 0
 197 403 207 379 207 355 c 0
 207 330 197 306 180 288 c 0
 163 271 138 261 114 261 c 0
 89 261 65 271 48 288 c 0
 30 306 20 330 20 355 c 0
 20 379 30 403 48 421 c 0
 65 438 89 448 114 448 c 0
EndSplineSet
EndChar
StartChar: semicolon
Encoding: 59 59 161
Width: 237
Flags: MW
HStem: -70 21G<88.5 103> 261 187<101 125.5>
VStem: 20 187<87 106 87 106 342.5 367>
LayerCount: 2
Back
Fore
SplineSet
197 53 m 1
 197 53 197 53 197 52 c 0
 196 51 196 50 195 49 c 2
 195 49 195 48 195 48 c 1
 142 -42 l 2
 132 -60 113 -70 93 -70 c 0
 84 -70 74 -68 65 -62 c 0
 38 -47 29 -12 44 15 c 2
 50 25 l 2
 49 26 48 27 47 28 c 0
 30 45 20 69 20 94 c 0
 20 118 30 143 47 160 c 0
 65 177 89 187 113 187 c 0
 138 187 162 177 179 160 c 0
 197 143 207 118 207 94 c 0
 207 80 203 66 197 53 c 1
113 261 m 0
 89 261 65 271 47 288 c 0
 30 306 20 330 20 355 c 0
 20 379 30 403 47 421 c 0
 65 438 89 448 113 448 c 0
 138 448 162 438 179 421 c 0
 197 403 207 379 207 355 c 0
 207 330 197 306 179 288 c 0
 162 271 138 261 113 261 c 0
EndSplineSet
EndChar
StartChar: less
Encoding: 60 60 162
Width: 475
Flags: W
LayerCount: 2
Back
Fore
SplineSet
448 735 m 0
 484 699 484 640 448 603 c 2
 226 381 l 1
 448 160 l 2
 484 123 484 64 448 27 c 0
 411 -9 352 -9 315 27 c 2
 27 315 l 2
 10 333 0 357 0 381 c 0
 0 406 10 430 27 448 c 2
 315 736 l 2
 352 772 411 772 448 735 c 0
EndSplineSet
EndChar
StartChar: equal
Encoding: 61 61 26
Width: 504
Flags: MW
HStem: 54 187<78 400 104 400> 264 187<78 400 104 400>
LayerCount: 2
Back
Fore
SplineSet
400 241 m 2
 452 241 494 199 494 147 c 0
 494 96 452 54 400 54 c 2
 104 54 l 2
 52 54 10 96 10 147 c 0
 10 199 52 241 104 241 c 2
 400 241 l 2
400 451 m 2
 452 451 494 409 494 357 c 0
 494 305 452 264 400 264 c 2
 104 264 l 2
 52 264 10 305 10 357 c 0
 10 409 52 451 104 451 c 2
 400 451 l 2
EndSplineSet
EndChar
StartChar: greater
Encoding: 62 62 163
Width: 475
Flags: W
LayerCount: 2
Back
Fore
SplineSet
159 736 m 2
 447 448 l 2
 465 430 475 406 475 381 c 0
 475 357 465 333 447 315 c 2
 159 27 l 2
 123 -9 64 -9 27 27 c 0
 -9 64 -9 123 27 160 c 2
 249 381 l 1
 27 603 l 2
 -9 640 -9 699 27 735 c 0
 64 772 123 772 159 736 c 2
EndSplineSet
EndChar
StartChar: question
Encoding: 63 63 6
Width: 578
Flags: MW
HStem: 0 187<281 332.5> 594 187<287.5 326>
VStem: 50 187<520.5 543.5 520.5 595> 213 187<68 119.5 285 286 68 362> 376 187<505 543.5>
LayerCount: 2
Back
Fore
SplineSet
307 187 m 0xd0
 358 187 400 145 400 94 c 0
 400 42 358 0 307 0 c 0
 255 0 213 42 213 94 c 0
 213 145 255 187 307 187 c 0xd0
307 781 m 0
 448 781 563 666 563 524 c 0xe8
 563 416 495 323 400 286 c 1
 400 285 l 2
 400 233 358 191 307 191 c 0
 255 191 213 233 213 285 c 2
 213 362 l 2xd0
 213 413 255 455 307 455 c 0
 345 455 376 486 376 524 c 0
 376 563 345 594 307 594 c 0
 268 594 237 563 237 524 c 0
 237 517 239 510 241 503 c 0
 257 454 230 401 181 385 c 0
 132 369 79 395 63 444 c 0
 55 470 50 497 50 524 c 0xe8
 50 666 165 781 307 781 c 0
EndSplineSet
EndChar
StartChar: at
Encoding: 64 64 8
Width: 1029
Flags: MW
HStem: -220 187<428 548 428 568> 49 187<502 526 502 539.5 774.5 797> 323 187<502 526> 592 187<428 599.5>
VStem: 15 187<193 365.5 193 417> 284 187<267 291 267 343> 558 187<277 279 265 280 265 292> 827 187<277 279 271 284 271 284>
LayerCount: 2
Back
Fore
SplineSet
514 510 m 0
 641 510 745 407 745 279 c 0
 745 278 745 277 745 276 c 0
 745 254 763 236 786 236 c 0
 808 236 827 254 827 277 c 0
 827 279 827 281 827 284 c 0
 825 454 685 592 514 592 c 0
 342 592 202 452 202 279 c 0
 202 107 342 -33 514 -33 c 0
 582 -33 646 -12 700 28 c 0
 741 59 800 50 831 8 c 0
 861 -33 853 -92 811 -123 c 0
 725 -186 622 -220 514 -220 c 0
 239 -220 15 4 15 279 c 0
 15 555 239 779 514 779 c 0
 790 779 1014 555 1014 279 c 0
 1014 277 1014 274 1014 271 c 0
 1010 148 909 49 786 49 c 0
 735 49 688 65 650 93 c 1
 612 65 565 49 514 49 c 0
 387 49 284 152 284 279 c 0
 284 407 387 510 514 510 c 0
514 236 m 0
 538 236 557 254 558 277 c 0
 558 278 558 279 558 280 c 0
 558 304 538 323 514 323 c 0
 490 323 471 303 471 279 c 0
 471 255 490 236 514 236 c 0
EndSplineSet
EndChar
StartChar: B
Encoding: 66 66 50
Width: 538
Flags: MW
HStem: 0 187<97.5 269 217 269 217 269> 743 20G<124 195 195 264>
VStem: 30 187<187 572 187 670 187 682.5> 258 187<505.5 526.5> 339 187<237 272>
LayerCount: 2
Back
Fore
SplineSet
438 450 m 1xf0
 492 403 526 333 526 256 c 0xe8
 526 115 410 0 269 0 c 2
 123 0 l 2
 72 0 30 42 30 94 c 2
 30 670 l 2
 30 695 40 718 57 736 c 0
 75 753 99 763 124 763 c 2
 124 763 195 763 195 763 c 2
 333 763 445 651 445 513 c 0
 445 491 443 471 438 450 c 1xf0
269 187 m 2
 307 187 339 218 339 256 c 0xe8
 339 288 319 314 289 323 c 0
 258 332 234 356 225 386 c 0
 216 417 223 450 244 474 c 0
 254 485 258 498 258 513 c 0xf0
 258 540 241 563 217 572 c 1
 217 187 l 1
 269 187 l 2
EndSplineSet
EndChar
StartChar: C
Encoding: 67 67 52
Width: 786
Flags: MW
HStem: -19 188<355.5 452.5 355.5 487> 593 187<355.5 452.5>
VStem: 15 187<322.5 439 322.5 491>
LayerCount: 2
Back
Fore
SplineSet
727 317 m 0
 772 292 789 235 764 190 c 0
 694 61 560 -19 414 -19 c 0
 194 -19 15 160 15 381 c 0
 15 601 194 780 414 780 c 0
 559 780 694 700 764 572 c 0
 789 527 772 470 727 445 c 0
 681 420 624 437 600 482 c 0
 562 550 491 593 414 593 c 0
 297 593 202 497 202 381 c 0
 202 264 297 169 414 169 c 0
 491 169 563 211 600 279 c 0
 625 325 681 341 727 317 c 0
EndSplineSet
EndChar
StartChar: D
Encoding: 68 68 56
Width: 605
Flags: MW
HStem: 0 188<97.5 217 123 217> 576 187<217 217>
VStem: 30 187<188 188 188 576> 403 187<329.5 434>
LayerCount: 2
Back
Fore
SplineSet
209 763 m 2
 419 763 590 592 590 382 c 0
 590 172 419 0 209 0 c 2
 123 0 l 2
 72 0 30 42 30 94 c 2
 30 670 l 2
 30 721 72 763 123 763 c 2
 209 763 l 2
217 188 m 1
 320 192 403 277 403 382 c 0
 403 486 320 572 217 576 c 1
 217 188 l 1
EndSplineSet
EndChar
StartChar: E
Encoding: 69 69 58
Width: 500
Flags: MW
HStem: 0 187<98 401 218 401 218 401> 319 187<218 350 218 350> 576 187<218 383 218 218>
VStem: 30 188<187 319 506 576>
LayerCount: 2
Back
Fore
SplineSet
401 187 m 2
 452 187 494 146 494 94 c 0
 494 42 452 0 401 0 c 2
 124 0 l 2
 72 0 30 42 30 94 c 2
 30 670 l 2
 30 721 72 763 124 763 c 2
 383 763 l 2
 434 763 476 721 476 670 c 0
 476 618 434 576 383 576 c 2
 218 576 l 1
 218 506 l 1
 350 506 l 2
 402 506 444 465 444 413 c 0
 444 361 402 319 350 319 c 2
 218 319 l 1
 218 187 l 1
 401 187 l 2
EndSplineSet
EndChar
StartChar: F
Encoding: 70 70 68
Width: 482
Flags: MW
HStem: -1 21G<98 150> 318 187<218 350 218 350> 575 187<218 383 218 218>
VStem: 30 188<93 318 505 575>
LayerCount: 2
Back
Fore
SplineSet
383 575 m 2
 218 575 l 1
 218 505 l 1
 350 505 l 2
 402 505 444 464 444 412 c 0
 444 360 402 318 350 318 c 2
 218 318 l 1
 218 93 l 2
 218 41 176 -1 124 -1 c 0
 72 -1 30 41 30 93 c 2
 30 669 l 2
 30 720 72 762 124 762 c 2
 383 762 l 2
 434 762 476 720 476 669 c 0
 476 617 434 575 383 575 c 2
EndSplineSet
EndChar
StartChar: G
Encoding: 71 71 70
Width: 823
Flags: MW
HStem: -18 187<355.5 455.5 355.5 524> 287 187<389 719 415 604> 593 187<355.5 446.5>
VStem: 15 187<322.5 439.5 322.5 491>
LayerCount: 2
Back
Fore
SplineSet
719 474 m 2
 771 474 813 433 813 381 c 0
 813 161 634 -18 414 -18 c 0
 194 -18 15 161 15 381 c 0
 15 601 194 780 414 780 c 0
 536 780 649 725 725 630 c 0
 758 590 751 531 711 499 c 0
 671 467 612 473 579 513 c 0
 539 564 479 593 414 593 c 0
 297 593 202 498 202 381 c 0
 202 264 297 169 414 169 c 0
 497 169 569 217 604 287 c 1
 415 287 l 2
 363 287 321 329 321 381 c 0
 321 433 363 474 415 474 c 2
 719 474 l 2
EndSplineSet
EndChar
StartChar: H
Encoding: 72 72 72
Width: 536
Flags: MW
HStem: 0 21G<97 149 386.5 438> 319 187<217 319 217 319> 743 20G<97 149 386.5 438>
VStem: 30 187<94 319 506 670> 319 187<94 319 319 319 506 670>
LayerCount: 2
Back
Fore
SplineSet
412 763 m 0
 464 763 506 721 506 670 c 2
 506 94 l 2
 506 42 464 0 412 0 c 0
 361 0 319 42 319 94 c 2
 319 319 l 1
 217 319 l 1
 217 94 l 2
 217 42 175 0 123 0 c 0
 71 0 30 42 30 94 c 2
 30 670 l 2
 30 721 71 763 123 763 c 0
 175 763 217 721 217 670 c 2
 217 506 l 1
 319 506 l 1
 319 670 l 2
 319 721 361 763 412 763 c 0
EndSplineSet
EndChar
StartChar: I
Encoding: 73 73 74
Width: 247
Flags: MW
HStem: 0 21G<97 149> 576 187<97 149>
VStem: 30 187<93 478 643.5 695>
LayerCount: 2
Back
Fore
SplineSet
123 763 m 0
 175 763 217 721 217 669 c 0
 217 618 175 576 123 576 c 0
 71 576 30 618 30 669 c 0
 30 721 71 763 123 763 c 0
123 572 m 0
 175 572 217 530 217 478 c 2
 217 93 l 2
 217 42 175 0 123 0 c 0
 71 0 30 42 30 93 c 2
 30 478 l 2
 30 530 71 572 123 572 c 0
EndSplineSet
EndChar
StartChar: J
Encoding: 74 74 85
Width: 560
Flags: MW
HStem: -18 187<249 290.5 249 342> 576 187<259 438 285 345>
VStem: 8 187<223.5 247.5 223.5 256> 345 187<244 576 576 576>
LayerCount: 2
Back
Fore
SplineSet
438 763 m 2
 490 763 532 721 532 669 c 2
 532 244 l 2
 532 100 414 -18 270 -18 c 0
 125 -18 8 100 8 244 c 0
 8 268 11 291 17 313 c 0
 30 363 82 393 132 379 c 0
 182 365 211 314 197 264 c 0
 196 258 195 251 195 244 c 0
 195 203 228 169 270 169 c 0
 311 169 345 203 345 244 c 2
 345 576 l 1
 285 576 l 2
 233 576 192 617 192 669 c 0
 192 721 233 763 285 763 c 2
 438 763 l 2
EndSplineSet
EndChar
StartChar: K
Encoding: 75 75 87
Width: 531
Flags: MW
HStem: 0 21G<98 149.5>
VStem: 30 187<94 279 542 670>
LayerCount: 2
Back
Fore
SplineSet
517 142 m 2
 543 98 529 40 485 14 c 0
 440 -13 383 2 356 46 c 2
 217 279 l 1
 217 94 l 2
 217 42 175 0 124 0 c 0
 72 0 30 42 30 94 c 2
 30 670 l 2
 30 721 72 763 124 763 c 0
 175 763 217 721 217 670 c 2
 217 542 l 1
 341 723 l 2
 370 765 429 776 471 747 c 0
 514 718 525 659 495 617 c 2
 355 412 l 1
 517 142 l 2
EndSplineSet
EndChar
StartChar: L
Encoding: 76 76 89
Width: 560
Flags: MW
HStem: -18 187<269.5 311 269.5 362.5> 743 20G<96 147.5>
VStem: 28 187<244 669> 365 187<223.5 247.5>
LayerCount: 2
Back
Fore
SplineSet
543 313 m 0
 549 291 552 268 552 244 c 0
 552 100 435 -18 290 -18 c 0
 146 -18 28 100 28 244 c 2
 28 669 l 1
 28 669 l 1
 28 721 70 763 122 763 c 0
 173 763 215 721 215 669 c 1
 215 669 l 1
 215 244 l 2
 215 203 249 169 290 169 c 0
 332 169 365 203 365 244 c 0
 365 251 364 258 363 264 c 1
 363 264 l 1
 349 314 378 365 428 379 c 0
 478 393 530 363 543 313 c 0
EndSplineSet
EndChar
StartChar: M
Encoding: 77 77 91
Width: 917
Flags: MW
HStem: -1 21G<95.5 147 432.5 484 770 821.5> 593 187<269 310.5 606.5 647.5>
VStem: 28 187<93 518> 365 187<93 518> 702 187<93 518>
CounterMasks: 1 38
LayerCount: 2
Back
Fore
SplineSet
627 780 m 0
 772 780 889 662 889 518 c 2
 889 93 l 2
 889 41 847 -1 796 -1 c 0
 744 -1 702 41 702 93 c 2
 702 518 l 2
 702 559 668 593 627 593 c 0
 586 593 552 559 552 518 c 2
 552 93 l 2
 552 41 510 -1 458 -1 c 0
 407 -1 365 41 365 93 c 2
 365 518 l 2
 365 559 331 593 290 593 c 0
 248 593 215 559 215 518 c 2
 215 93 l 2
 215 41 173 -1 121 -1 c 0
 70 -1 28 41 28 93 c 2
 28 518 l 2
 28 662 145 780 290 780 c 0
 354 780 413 757 458 718 c 1
 504 757 563 780 627 780 c 0
EndSplineSet
EndChar
StartChar: N
Encoding: 78 78 93
Width: 580
Flags: MW
HStem: -1 21G<95.5 147 433 484.5> 593 187<269.5 310.5>
VStem: 28 187<92 518> 365 187<66 92 92 518>
LayerCount: 2
Back
Fore
SplineSet
28 92 m 2
 28 518 l 2
 28 662 145 780 290 780 c 0
 434 780 552 662 552 518 c 2
 552 92 l 1
 552 92 l 1
 552 40 510 -1 459 -1 c 0
 407 -1 365 40 365 92 c 1
 365 92 l 1
 365 518 l 2
 365 559 331 593 290 593 c 0
 249 593 215 559 215 518 c 2
 215 92 l 1
 215 92 l 1
 215 40 173 -1 121 -1 c 0
 70 -1 28 40 28 92 c 2
EndSplineSet
EndChar
StartChar: P
Encoding: 80 80 111
Width: 533
Flags: MW
HStem: 0 21G<98 149.5> 251 187<217 268 217 268> 576 187<217 217 217 268>
VStem: 30 187<94 251 438 576> 338 187<488 526>
LayerCount: 2
Back
Fore
SplineSet
124 0 m 0
 72 0 30 42 30 94 c 2
 30 669 l 2
 30 721 72 763 124 763 c 2
 268 763 l 2
 410 763 525 648 525 507 c 0
 525 366 410 251 268 251 c 2
 217 251 l 1
 217 94 l 2
 217 42 175 0 124 0 c 0
217 576 m 1
 217 438 l 1
 268 438 l 2
 306 438 338 469 338 507 c 0
 338 545 306 576 268 576 c 2
 217 576 l 1
EndSplineSet
EndChar
StartChar: Q
Encoding: 81 81 113
Width: 828
Flags: MW
HStem: -18 187<355.5 426 355.5 452> 593 187<355.5 472.5>
VStem: 15 187<322.5 439.5 322.5 491> 626 187<369 439.5>
LayerCount: 2
Back
Fore
SplineSet
754 172 m 1
 783 143 l 2
 820 106 819 47 783 10 c 0
 746 -26 687 -26 650 11 c 2
 621 40 l 1
 561 3 490 -18 414 -18 c 0
 194 -18 15 161 15 381 c 0
 15 601 194 780 414 780 c 0
 634 780 813 601 813 381 c 0
 813 304 791 233 754 172 c 1
414 169 m 0
 438 169 461 173 482 180 c 1
 435 228 l 2
 398 265 398 324 435 360 c 0
 472 397 531 397 567 360 c 2
 615 312 l 1
 622 334 626 357 626 381 c 0
 626 498 531 593 414 593 c 0
 297 593 202 498 202 381 c 0
 202 264 297 169 414 169 c 0
EndSplineSet
EndChar
StartChar: R
Encoding: 82 82 115
Width: 540
Flags: MW
HStem: -1 21G<97 149 406 457.5> 742 20G<123 196 196 264.5>
VStem: 30 187<93 571> 258 187<504.5 525.5> 338 187<93 255 67 271>
LayerCount: 2
Back
Fore
SplineSet
437 449 m 1xf0
 492 402 525 332 525 255 c 2
 525 93 l 2
 525 41 483 -1 432 -1 c 0
 380 -1 338 41 338 93 c 2
 338 255 l 2xe8
 338 287 318 313 289 322 c 0
 258 331 234 355 225 385 c 0
 216 416 223 449 244 473 c 0
 254 484 258 497 258 512 c 0
 258 539 240 562 217 571 c 1
 217 93 l 2
 217 41 175 -1 123 -1 c 0
 71 -1 30 41 30 93 c 2
 30 669 l 2
 30 694 39 717 57 735 c 0
 75 752 98 762 123 762 c 2
 123 762 196 762 196 762 c 2
 333 762 445 650 445 512 c 0
 445 490 442 470 437 449 c 1xf0
EndSplineSet
EndChar
StartChar: S
Encoding: 83 83 117
Width: 515
Flags: MW
HStem: 1 187<97 123 123 242 123 123> 320 187<232.5 260> 577 187<232.5 329 242 329 242 329>
VStem: 20 187<532.5 552 532.5 603.5> 308 187<236 272.5>
LayerCount: 2
Back
Fore
SplineSet
329 764 m 2
 381 764 423 722 423 671 c 0
 423 619 381 577 329 577 c 1
 329 577 l 1
 242 577 l 2
 223 577 207 562 207 542 c 0
 207 523 223 507 242 507 c 0
 381 507 495 394 495 254 c 0
 495 115 381 1 242 1 c 2
 123 1 l 1
 123 1 l 1
 71 1 29 43 29 95 c 0
 29 147 71 188 123 188 c 1
 123 188 l 1
 242 188 l 2
 278 188 308 218 308 254 c 0
 308 291 278 320 242 320 c 0
 119 320 20 420 20 542 c 0
 20 665 119 764 242 764 c 2
 329 764 l 2
EndSplineSet
EndChar
StartChar: T
Encoding: 84 84 119
Width: 540
Flags: MW
HStem: 0 21G<244 296> 761 20G<228.5 311.5>
VStem: 177 187<94 572>
LayerCount: 2
Back
Fore
SplineSet
500 708 m 0
 542 678 552 620 522 578 c 0
 493 535 434 525 392 555 c 0
 383 562 374 567 364 572 c 1
 364 94 l 2
 364 42 322 0 270 0 c 0
 218 0 177 42 177 94 c 2
 177 572 l 1
 167 567 157 562 148 555 c 0
 106 525 47 535 18 578 c 0
 -12 620 -2 678 40 708 c 0
 108 756 187 781 270 781 c 0
 353 781 432 756 500 708 c 0
EndSplineSet
EndChar
StartChar: V
Encoding: 86 86 133
Width: 609
Flags: MW
VStem: 392 187<398 669>
LayerCount: 2
Back
Fore
SplineSet
486 763 m 0
 538 763 579 721 579 669 c 2
 579 94 l 2
 579 52 553 16 513 4 c 0
 474 -8 432 7 409 41 c 2
 17 617 l 2
 -12 659 -1 718 42 747 c 0
 85 776 143 765 172 722 c 2
 392 398 l 1
 392 669 l 2
 392 721 434 763 486 763 c 0
EndSplineSet
EndChar
StartChar: W
Encoding: 87 87 135
Width: 917
Flags: MW
HStem: -1 187<269.5 310.5 269.5 322 606.5 648> 760 20G<95.5 147 433 484.5 770 821.5>
VStem: 28 187<261 686> 365 187<261 686> 702 187<261 686>
CounterMasks: 1 38
LayerCount: 2
Back
Fore
SplineSet
290 -1 m 0
 145 -1 28 117 28 261 c 2
 28 686 l 2
 28 738 70 780 121 780 c 0
 173 780 215 738 215 686 c 2
 215 261 l 2
 215 220 249 186 290 186 c 0
 331 186 365 220 365 261 c 2
 365 686 l 2
 365 738 407 780 459 780 c 0
 510 780 552 738 552 686 c 2
 552 261 l 2
 552 220 586 186 627 186 c 0
 669 186 702 220 702 261 c 2
 702 686 l 2
 702 738 744 780 796 780 c 0
 847 780 889 738 889 686 c 2
 889 261 l 2
 889 117 772 -1 627 -1 c 0
 563 -1 504 22 459 61 c 1
 413 22 354 -1 290 -1 c 0
EndSplineSet
EndChar
StartChar: X
Encoding: 88 88 137
Width: 584
Flags: MW
HStem: 0 21G<97.5 149 435 486.5> 302 187<271.5 312.5> 743 20G<97.5 149 435 486.5>
VStem: 30 187<94 227 68 259 564 670> 367 187<94 227 68 247.5 564 670>
LayerCount: 2
Back
Fore
SplineSet
461 763 m 0
 512 763 554 721 554 670 c 2
 554 564 l 2
 554 500 531 441 493 396 c 1
 531 350 554 291 554 227 c 2
 554 94 l 2
 554 42 512 0 461 0 c 0
 409 0 367 42 367 94 c 2
 367 227 l 2
 367 268 333 302 292 302 c 0
 251 302 217 268 217 227 c 2
 217 94 l 2
 217 42 175 0 123 0 c 0
 72 0 30 42 30 94 c 2
 30 227 l 2
 30 291 53 350 91 396 c 1
 53 441 30 500 30 564 c 2
 30 670 l 2
 30 721 72 763 123 763 c 0
 175 763 217 721 217 670 c 2
 217 564 l 2
 217 523 251 489 292 489 c 0
 333 489 367 523 367 564 c 2
 367 670 l 2
 367 721 409 763 461 763 c 0
EndSplineSet
EndChar
StartChar: Y
Encoding: 89 89 139
Width: 561
Flags: MW
HStem: 0 21G<255 306.5>
VStem: 187 187<93 318>
LayerCount: 2
Back
Fore
SplineSet
513 750 m 0
 558 724 573 667 548 622 c 2
 374 318 l 1
 374 93 l 2
 374 41 332 0 281 0 c 0
 229 0 187 41 187 93 c 2
 187 318 l 1
 13 622 l 2
 -12 667 3 724 48 750 c 0
 93 776 150 760 176 715 c 2
 281 531 l 1
 385 715 l 2
 411 760 468 776 513 750 c 0
EndSplineSet
EndChar
StartChar: Z
Encoding: 90 90 141
Width: 535
Flags: MW
HStem: 0 187<87.5 432 261 432 261 432> 575 187<102 417 128 260>
LayerCount: 2
Back
Fore
SplineSet
432 187 m 2
 483 187 525 145 525 93 c 0
 525 41 483 0 432 0 c 2
 104 0 l 2
 71 0 41 17 24 45 c 0
 7 74 6 109 22 138 c 2
 260 575 l 1
 128 575 l 2
 76 575 34 617 34 669 c 0
 34 721 76 762 128 762 c 2
 417 762 l 2
 450 762 481 745 497 717 c 0
 514 688 515 653 499 624 c 2
 261 187 l 1
 432 187 l 2
EndSplineSet
EndChar
StartChar: bracketleft
Encoding: 91 91 16
Width: 400
Flags: MW
HStem: 0 187<97.5 292 217 292 217 292> 576 187<217 292 217 217>
VStem: 30 187<187 576 187 669 187 695>
LayerCount: 2
Back
Fore
SplineSet
292 0 m 2
 123 0 l 2
 72 0 30 42 30 93 c 2
 30 669 l 2
 30 721 72 763 123 763 c 2
 292 763 l 2
 344 763 385 721 385 669 c 0
 385 617 344 576 292 576 c 2
 217 576 l 1
 217 187 l 1
 292 187 l 2
 344 187 385 145 385 93 c 0
 385 42 344 0 292 0 c 2
EndSplineSet
EndChar
StartChar: backslash
Encoding: 92 92 155
Width: 378
Flags: W
LayerCount: 2
Back
Fore
SplineSet
65 764 m 0
 114 780 167 753 183 704 c 2
 373 123 l 2
 389 74 362 21 313 5 c 0
 264 -11 211 15 195 64 c 2
 5 646 l 2
 -11 695 15 748 65 764 c 0
EndSplineSet
EndChar
StartChar: bracketright
Encoding: 93 93 17
Width: 400
Flags: MW
HStem: 0 187<82.5 183 108 183 108 277> 576 187<82.5 277 108 183>
VStem: 183 187<187 576 576 576>
LayerCount: 2
Back
Fore
SplineSet
277 0 m 2
 108 0 l 2
 57 0 15 42 15 93 c 0
 15 145 57 187 108 187 c 2
 183 187 l 1
 183 576 l 1
 108 576 l 2
 57 576 15 617 15 669 c 0
 15 721 57 763 108 763 c 2
 277 763 l 2
 284 763 291 762 298 760 c 0
 339 751 370 714 370 669 c 2
 370 93 l 2
 370 42 329 0 277 0 c 2
EndSplineSet
EndChar
StartChar: asciicircum
Encoding: 94 94 172
Width: 349
Flags: W
LayerCount: 2
Back
Fore
SplineSet
301 441 m 2
 331 419 338 377 316 346 c 0
 294 316 252 309 221 331 c 2
 175 364 l 1
 128 331 l 2
 98 309 55 316 33 346 c 0
 12 377 18 419 49 441 c 2
 135 503 l 2
 159 520 191 520 215 503 c 2
 301 441 l 2
EndSplineSet
EndChar
StartChar: underscore
Encoding: 95 95 20
Width: 479
Flags: MW
HStem: -151 187<18 44 44 436 44 44>
LayerCount: 2
Back
Fore
SplineSet
436 36 m 2
 487 36 529 -6 529 -58 c 0
 529 -109 487 -151 436 -151 c 1
 436 -151 l 1
 44 -151 l 1
 44 -151 l 1
 -8 -151 -50 -109 -50 -58 c 0
 -50 -6 -8 36 44 36 c 1
 44 36 l 1
 436 36 l 2
EndSplineSet
EndChar
StartChar: grave
Encoding: 96 96 176
Width: 262
Flags: W
LayerCount: 2
Back
Fore
SplineSet
214 891 m 2
 244 869 251 826 229 796 c 0
 207 765 165 758 134 780 c 2
 48 842 l 2
 18 864 11 907 33 937 c 0
 55 968 97 975 128 953 c 2
 214 891 l 2
EndSplineSet
EndChar
StartChar: a
Encoding: 97 97 44
Width: 580
Flags: MW
HStem: -1 21G<96 147.5 433 484.5> 234 187<215 365 215 365> 593 187<269.5 311>
VStem: 28 187<93 234 421 518> 365 187<93 234 234 234 421 518>
LayerCount: 2
Back
Fore
SplineSet
290 780 m 0
 435 780 552 662 552 518 c 2
 552 93 l 2
 552 41 510 -1 459 -1 c 0
 407 -1 365 41 365 93 c 2
 365 234 l 1
 215 234 l 1
 215 93 l 2
 215 41 173 -1 122 -1 c 0
 70 -1 28 41 28 93 c 2
 28 518 l 2
 28 662 146 780 290 780 c 0
215 421 m 1
 365 421 l 1
 365 518 l 2
 365 559 332 593 290 593 c 0
 249 593 215 559 215 518 c 2
 215 421 l 1
EndSplineSet
EndChar
StartChar: b
Encoding: 98 98 51
Width: 533
Flags: MW
HStem: 0 187<98 262 218 262 218 262> 743 20G<124 215 215 282>
VStem: 30 188<187 576 187 670 187 695.5> 271 187<514 537.5> 334 187<239 274>
LayerCount: 2
Back
Fore
SplineSet
521 259 m 0xe8
 521 116 405 0 262 0 c 2
 124 0 l 2
 72 0 30 42 30 94 c 2
 30 670 l 2
 30 721 72 763 124 763 c 2
 124 763 215 763 215 763 c 2
 349 763 458 656 458 524 c 0xf0
 458 496 453 469 444 443 c 1
 492 395 521 330 521 259 c 0xe8
262 187 m 2
 302 187 334 219 334 259 c 0xe8
 334 289 314 316 285 326 c 0
 253 337 230 363 223 396 c 0
 217 429 228 463 253 485 c 0
 260 491 271 504 271 524 c 0xf0
 271 551 246 575 218 576 c 1
 218 187 l 1
 262 187 l 2
EndSplineSet
EndChar
StartChar: c
Encoding: 99 99 54
Width: 568
Flags: MW
HStem: -18 187<265.5 306.5 265.5 358.5> 593 187<265.5 306.5>
VStem: 24 187<244 518> 361 187<244 254 172 280 509 518>
LayerCount: 2
Back
Fore
SplineSet
286 780 m 0
 431 780 548 663 548 518 c 2
 548 509 l 2
 548 457 506 415 455 415 c 0
 403 415 361 457 361 509 c 2
 361 518 l 2
 361 560 327 593 286 593 c 0
 245 593 211 560 211 518 c 2
 211 244 l 2
 211 203 245 169 286 169 c 0
 327 169 361 203 361 244 c 2
 361 254 l 2
 361 306 403 348 455 348 c 0
 506 348 548 306 548 254 c 2
 548 244 l 2
 548 100 431 -18 286 -18 c 0
 142 -18 24 100 24 244 c 2
 24 518 l 2
 24 663 142 780 286 780 c 0
EndSplineSet
EndChar
StartChar: d
Encoding: 100 100 57
Width: 572
Flags: MW
HStem: 0 21G<98 124 124 175> 743 20G<124 175 175 280>
VStem: 30 187<192 192 192 572> 370 187<335.5 428.5>
LayerCount: 2
Back
Fore
SplineSet
175 763 m 2
 385 763 557 592 557 382 c 0
 557 172 385 0 175 0 c 2
 124 0 l 2
 72 0 30 42 30 94 c 2
 30 670 l 2
 30 721 72 763 124 763 c 2
 175 763 l 2
217 192 m 1
 304 211 370 289 370 382 c 0
 370 475 304 552 217 572 c 1
 217 192 l 1
EndSplineSet
EndChar
StartChar: f
Encoding: 102 102 69
Width: 474
Flags: MW
HStem: 1 21G<95.5 147> 320 187<215 348 215 348> 577 187<240.5 380 250 380>
VStem: 28 187<94 320 507 542>
LayerCount: 2
Back
Fore
SplineSet
250 577 m 2
 231 577 215 561 215 542 c 2
 215 507 l 1
 348 507 l 2
 399 507 441 465 441 413 c 0
 441 362 399 320 348 320 c 2
 215 320 l 1
 215 94 l 2
 215 43 173 1 121 1 c 0
 70 1 28 43 28 94 c 2
 28 542 l 2
 28 664 128 764 250 764 c 2
 380 764 l 2
 432 764 474 722 474 670 c 0
 474 618 432 577 380 577 c 2
 250 577 l 2
EndSplineSet
EndChar
StartChar: g
Encoding: 103 103 71
Width: 568
Flags: MW
HStem: -18 187<265.5 306.5 265.5 358.5> 287 188<282.5 455 308 361> 593 187<265.5 302>
VStem: 24 187<244 518> 361 187<244 287 287 287>
CounterMasks: 1 e0
LayerCount: 2
Back
Fore
SplineSet
548 381 m 2
 548 381 548 244 548 244 c 2
 548 100 431 -18 286 -18 c 0
 142 -18 24 100 24 244 c 2
 24 518 l 2
 24 663 142 780 286 780 c 0
 398 780 498 709 534 603 c 0
 551 554 525 501 476 484 c 0
 427 467 374 493 357 542 c 0
 347 573 318 593 286 593 c 0
 245 593 211 559 211 518 c 2
 211 244 l 2
 211 203 245 169 286 169 c 0
 327 169 361 203 361 244 c 2
 361 287 l 1
 308 287 l 2
 257 287 215 329 215 381 c 0
 215 433 257 475 308 475 c 2
 455 475 l 2
 506 475 548 433 548 381 c 2
EndSplineSet
EndChar
StartChar: h
Encoding: 104 104 73
Width: 556
Flags: MW
HStem: 0 21G<97 149 406.5 458> 319 187<217 339 217 339> 743 20G<97 149 406.5 458>
VStem: 30 187<94 319 506 670> 339 187<94 319 319 319 506 670>
LayerCount: 2
Back
Fore
SplineSet
432 763 m 0
 484 763 526 721 526 670 c 2
 526 94 l 2
 526 42 484 0 432 0 c 0
 381 0 339 42 339 94 c 2
 339 319 l 1
 217 319 l 1
 217 94 l 2
 217 42 175 0 123 0 c 0
 71 0 30 42 30 94 c 2
 30 670 l 2
 30 721 71 763 123 763 c 0
 175 763 217 721 217 670 c 2
 217 506 l 1
 339 506 l 1
 339 670 l 2
 339 721 381 763 432 763 c 0
EndSplineSet
EndChar
StartChar: i
Encoding: 105 105 79
Width: 247
Flags: MW
HStem: 0 21G<97 149> 743 20G<97 149>
VStem: 30 187<68 94 94 670>
LayerCount: 2
Back
Fore
SplineSet
30 670 m 2
 30 721 71 763 123 763 c 0
 175 763 217 721 217 670 c 1
 217 670 l 1
 217 94 l 1
 217 94 l 1
 217 42 175 0 123 0 c 0
 71 0 30 42 30 94 c 1
 30 94 l 1
 30 670 l 2
EndSplineSet
EndChar
StartChar: j
Encoding: 106 106 86
Width: 560
Flags: MW
HStem: -18 187<249 290.5 249 342> 743 20G<412.5 464>
VStem: 8 187<223.5 247.5 223.5 256> 345 187<244 669>
LayerCount: 2
Back
Fore
SplineSet
17 313 m 0
 30 363 82 393 132 379 c 0
 182 365 211 314 197 264 c 1
 197 264 l 1
 196 258 195 251 195 244 c 0
 195 203 228 169 270 169 c 0
 311 169 345 203 345 244 c 2
 345 669 l 1
 345 669 l 1
 345 721 387 763 438 763 c 0
 490 763 532 721 532 669 c 1
 532 669 l 1
 532 244 l 2
 532 100 414 -18 270 -18 c 0
 125 -18 8 100 8 244 c 0
 8 268 11 291 17 313 c 0
EndSplineSet
EndChar
StartChar: k
Encoding: 107 107 88
Width: 563
Flags: MW
HStem: 0 21G<98 149.5 428.5 480>
VStem: 30 187<93 301 488 669> 361 187<93 226 67 247>
LayerCount: 2
Back
Fore
SplineSet
417 453 m 1
 495 407 548 323 548 226 c 2
 548 93 l 2
 548 41 506 0 454 0 c 0
 403 0 361 41 361 93 c 2
 361 226 l 2
 361 268 327 301 286 301 c 2
 217 301 l 1
 217 93 l 2
 217 41 175 0 124 0 c 0
 72 0 30 41 30 93 c 2
 30 669 l 2
 30 721 72 762 124 762 c 0
 175 762 217 721 217 669 c 2
 217 488 l 1
 220 488 l 1
 361 718 l 2
 388 762 446 776 490 749 c 0
 534 722 547 664 520 620 c 2
 417 453 l 1
EndSplineSet
EndChar
StartChar: l
Encoding: 108 108 90
Width: 494
Flags: MW
HStem: 0 187<97.5 400 217 400 217 400> 743 20G<97.5 149>
VStem: 30 187<187 670 187 670 187 695.5>
LayerCount: 2
Back
Fore
SplineSet
400 187 m 2
 452 187 494 146 494 94 c 0
 494 42 452 0 400 0 c 2
 123 0 l 2
 72 0 30 42 30 94 c 2
 30 670 l 2
 30 721 72 763 123 763 c 0
 175 763 217 721 217 670 c 2
 217 187 l 1
 400 187 l 2
EndSplineSet
EndChar
StartChar: m
Encoding: 109 109 92
Width: 749
Flags: W
LayerCount: 2
Back
Fore
SplineSet
732 106 m 2
 740 55 704 8 653 1 c 0
 601 -6 554 30 547 81 c 2
 519 285 l 1
 462 131 l 2
 449 94 414 70 374 70 c 0
 335 70 300 94 287 131 c 2
 230 285 l 1
 202 81 l 2
 195 30 147 -6 96 1 c 0
 45 8 9 55 16 106 c 2
 96 682 l 2
 102 725 136 758 178 763 c 0
 221 767 261 742 276 702 c 2
 374 435 l 1
 473 702 l 2
 487 742 528 767 570 763 c 0
 613 758 647 725 653 682 c 2
 732 106 l 2
EndSplineSet
EndChar
StartChar: n
Encoding: 110 110 95
Width: 580
Flags: MW
HStem: 0 21G<97.5 149>
VStem: 30 187<93 321> 363 187<441 669>
LayerCount: 2
Back
Fore
SplineSet
457 763 m 0
 508 763 550 721 550 669 c 2
 550 93 l 2
 550 51 522 14 481 3 c 0
 440 -8 397 10 376 46 c 2
 217 321 l 1
 217 93 l 2
 217 42 175 0 123 0 c 0
 72 0 30 42 30 93 c 2
 30 669 l 2
 30 711 58 748 99 759 c 0
 140 770 183 752 204 716 c 2
 363 441 l 1
 363 669 l 2
 363 721 405 763 457 763 c 0
EndSplineSet
EndChar
StartChar: p
Encoding: 112 112 112
Width: 533
Flags: MW
HStem: 0 21G<97 149> 576 187<217 268 217 217>
VStem: 30 187<93 576> 338 187<491.5 526>
LayerCount: 2
Back
Fore
SplineSet
268 763 m 2
 410 763 525 648 525 507 c 0
 525 392 451 293 341 260 c 0
 291 246 239 274 225 324 c 0
 210 374 239 426 289 440 c 0
 318 449 338 476 338 507 c 0
 338 545 307 576 268 576 c 2
 217 576 l 1
 217 93 l 2
 217 42 175 0 123 0 c 0
 71 0 30 42 30 93 c 2
 30 669 l 2
 30 721 71 763 123 763 c 2
 268 763 l 2
EndSplineSet
EndChar
StartChar: q
Encoding: 113 113 114
Width: 577
Flags: MW
HStem: -25 21G -18 21G<213.5 310.5> 575 187
VStem: 23 188 361 187<296 518>
LayerCount: 2
Back
Fore
SplineSet
560 143 m 2xb8
 596 107 596 47 560 11 c 0
 541 -7 517 -17 494 -17 c 0
 470 -17 446 -7 427 11 c 2
 420 19 l 1
 380 -5 335 -18 286 -18 c 0x78
 141 -18 24 100 24 244 c 2
 24 518 l 2
 24 663 141 780 286 780 c 0
 430 780 548 663 548 518 c 2
 548 244 l 2
 548 217 544 191 536 167 c 1
 560 143 l 2xb8
211 244 m 2
 211 205 242 172 280 169 c 1
 267 203 274 242 302 269 c 0
 318 286 339 295 361 296 c 1
 361 518 l 2
 361 559 327 593 286 593 c 0
 245 593 211 559 211 518 c 2
 211 244 l 2
EndSplineSet
EndChar
StartChar: r
Encoding: 114 114 116
Width: 559
Flags: MW
HStem: 0 21G<98 150 424.5 476> 576 187<217 268 217 217>
VStem: 30 187<93 576> 338 187<491 526> 357 187<93 188 67.5 205.5>
LayerCount: 2
Back
Fore
SplineSet
525 507 m 0xf0
 525 452 508 401 479 359 c 1
 520 313 544 254 544 188 c 2
 544 93 l 2
 544 42 502 0 450 0 c 0
 399 0 357 42 357 93 c 2
 357 188 l 2xe8
 357 223 333 250 294 259 c 0
 252 268 222 305 221 347 c 0
 220 390 247 428 288 440 c 0
 318 449 338 475 338 507 c 0
 338 545 307 576 268 576 c 2
 217 576 l 1
 217 93 l 2
 217 42 176 0 124 0 c 0
 72 0 30 42 30 93 c 2
 30 669 l 2
 30 721 72 763 124 763 c 2
 268 763 l 2
 410 763 525 648 525 507 c 0xf0
EndSplineSet
EndChar
StartChar: s
Encoding: 115 115 118
Width: 554
Flags: MW
HStem: -18 187 319 187
VStem: 40 187 356 187
LayerCount: 2
Back
Fore
SplineSet
20 272 m 0
 25 323 71 360 122 355 c 0
 174 350 211 304 206 252 c 1
 206 252 l 1
 205 249 205 245 205 242 c 0
 207 200 242 167 283 169 c 0
 303 170 322 178 336 193 c 0
 349 208 356 227 356 247 c 0
 354 288 319 321 278 319 c 0
 151 315 44 415 40 541 c 0
 36 668 135 775 262 779 c 0
 370 783 467 710 493 605 c 1
 493 605 l 1
 506 555 475 504 425 492 c 0
 375 479 324 510 312 560 c 1
 312 560 l 1
 307 579 289 593 268 592 c 0
 245 591 226 571 227 548 c 0
 228 524 248 506 271 506 c 0
 416 511 538 398 543 253 c 0
 545 183 520 116 472 65 c 0
 425 14 360 -16 290 -18 c 0
 145 -23 23 90 18 235 c 0
 18 247 18 260 20 272 c 0
EndSplineSet
EndChar
StartChar: t
Encoding: 116 116 120
Width: 534
Flags: MW
HStem: -1 21G<241.5 293> 576 187<68 440 94 174 361 440 361 361>
VStem: 174 187<92 576>
LayerCount: 2
Back
Fore
SplineSet
440 763 m 2
 492 763 534 721 534 669 c 0
 534 618 492 576 440 576 c 2
 361 576 l 1
 361 92 l 2
 361 40 319 -1 267 -1 c 0
 216 -1 174 40 174 92 c 2
 174 576 l 1
 94 576 l 2
 42 576 0 618 0 669 c 0
 0 721 42 763 94 763 c 2
 440 763 l 2
EndSplineSet
EndChar
StartChar: v
Encoding: 118 118 134
Width: 560
Flags: MW
HStem: 0 21G<260 300.5>
LayerCount: 2
Back
Fore
SplineSet
495 758 m 0
 544 742 571 689 555 640 c 2
 369 64 l 2
 357 26 321 0 280 0 c 0
 240 0 204 26 191 64 c 2
 5 640 l 2
 -10 689 16 742 66 758 c 0
 115 774 168 747 183 698 c 2
 280 397 l 1
 377 698 l 2
 393 747 446 774 495 758 c 0
EndSplineSet
EndChar
StartChar: w
Encoding: 119 119 136
Width: 718
Flags: W
LayerCount: 2
Back
Fore
SplineSet
637 762 m 0
 689 755 724 707 717 656 c 2
 638 80 l 2
 632 38 599 6 557 0 c 0
 515 -5 474 19 459 58 c 2
 359 304 l 1
 260 58 l 2
 244 19 204 -5 162 0 c 0
 120 6 86 38 81 80 c 2
 1 656 l 2
 -6 707 30 755 81 762 c 0
 132 769 179 733 187 682 c 2
 218 454 l 1
 272 589 l 2
 287 624 321 648 359 648 c 0
 397 648 432 624 446 589 c 2
 501 454 l 1
 532 682 l 2
 539 733 586 769 637 762 c 0
EndSplineSet
EndChar
StartChar: x
Encoding: 120 120 138
Width: 550
Flags: W
LayerCount: 2
Back
Fore
SplineSet
488 750 m 0
 532 724 548 667 522 622 c 2
 383 381 l 1
 521 140 l 1
 521 140 l 1
 547 95 532 38 487 12 c 0
 442 -13 385 2 359 47 c 2
 275 193 l 1
 191 47 l 2
 165 2 108 -13 63 12 c 0
 18 38 3 95 29 140 c 1
 29 140 l 1
 167 381 l 1
 28 622 l 2
 2 667 18 724 62 750 c 0
 107 776 164 761 190 716 c 2
 275 568 l 1
 360 716 l 2
 386 761 443 776 488 750 c 0
EndSplineSet
EndChar
StartChar: y
Encoding: 121 121 140
Width: 554
Flags: MW
HStem: 0 21G<252.5 304> 743 20G<82.5 134 419.5 471>
VStem: 15 187<564 669 543 695> 185 187<93 318 318 318> 352 187<564 669 508 695>
LayerCount: 2
Back
Fore
SplineSet
445 763 m 0xe8
 497 763 539 721 539 669 c 2
 539 564 l 2xe8
 539 452 469 357 372 319 c 1
 372 93 l 2
 372 42 330 0 278 0 c 0
 227 0 185 42 185 93 c 2
 185 318 l 1xd0
 85 356 15 451 15 564 c 2
 15 669 l 2
 15 721 57 763 108 763 c 0
 160 763 202 721 202 669 c 2
 202 564 l 2
 202 522 235 489 277 489 c 0
 318 489 352 522 352 564 c 2
 352 669 l 2
 352 721 394 763 445 763 c 0xe8
EndSplineSet
EndChar
StartChar: z
Encoding: 122 122 142
Width: 522
Flags: MW
HStem: 0 187<106 416 272 416 272 416> 575 187<120 401 146 252>
LayerCount: 2
Back
Fore
SplineSet
416 187 m 2
 468 187 510 145 510 93 c 0
 510 41 468 0 416 0 c 2
 122 0 l 2
 90 0 60 16 43 43 c 0
 26 71 24 105 38 134 c 2
 252 575 l 1
 146 575 l 2
 94 575 53 617 53 669 c 0
 53 721 94 762 146 762 c 2
 401 762 l 2
 433 762 463 746 481 719 c 0
 498 691 499 657 485 628 c 2
 272 187 l 1
 416 187 l 2
EndSplineSet
EndChar
StartChar: braceleft
Encoding: 123 123 18
Width: 452
Flags: MW
HStem: -18 187<328 374.5 328 374.5> 593 187<328 374.5>
VStem: 86 188<244 270 270 275.5 492 518>
LayerCount: 2
Back
Fore
SplineSet
349 169 m 0
 400 169 442 128 442 76 c 0
 442 24 400 -18 349 -18 c 0
 204 -18 86 100 86 244 c 2
 86 270 l 2
 86 281 78 289 71 290 c 0
 29 301 0 338 0 381 c 0
 0 424 29 462 71 472 c 0
 78 474 86 481 86 492 c 2
 86 518 l 2
 86 663 204 780 349 780 c 0
 400 780 442 739 442 687 c 0
 442 635 400 593 349 593 c 0
 307 593 274 560 274 518 c 2
 274 454 l 2
 274 425 260 399 239 381 c 1
 260 364 274 338 274 309 c 2
 274 244 l 2
 274 203 307 169 349 169 c 0
EndSplineSet
EndChar
StartChar: bar
Encoding: 124 124 156
Width: 247
Flags: MW
HStem: -219 21G<97 149> 764 20G<97 149>
VStem: 30 187<-151 -125 -125 691>
LayerCount: 2
Back
Fore
SplineSet
30 691 m 2
 30 742 71 784 123 784 c 0
 175 784 217 742 217 691 c 1
 217 691 l 1
 217 -125 l 1
 217 -125 l 1
 217 -177 175 -219 123 -219 c 0
 71 -219 30 -177 30 -125 c 1
 30 -125 l 1
 30 691 l 2
EndSplineSet
EndChar
StartChar: braceright
Encoding: 125 125 19
Width: 452
Flags: MW
HStem: -18 187<77.5 124 77.5 175.5> 593 187<77.5 124>
VStem: 178 188<244 270 172 309 172 323.5 486.5 492 492 518>
LayerCount: 2
Back
Fore
SplineSet
103 169 m 0
 145 169 178 203 178 244 c 2
 178 309 l 2
 178 338 192 364 213 381 c 1
 192 399 178 425 178 454 c 2
 178 518 l 2
 178 560 145 593 103 593 c 0
 52 593 10 635 10 687 c 0
 10 739 52 780 103 780 c 0
 248 780 366 663 366 518 c 2
 366 492 l 2
 366 481 374 474 381 472 c 0
 423 462 452 424 452 381 c 0
 452 338 423 301 381 290 c 0
 374 289 366 281 366 270 c 2
 366 244 l 2
 366 100 248 -18 103 -18 c 0
 52 -18 10 24 10 76 c 0
 10 128 52 169 103 169 c 0
EndSplineSet
EndChar
StartChar: asciitilde
Encoding: 126 126 173
Width: 365
Flags: W
LayerCount: 2
Back
Fore
SplineSet
296 483 m 0
 332 472 353 434 342 398 c 0
 332 365 302 325 250 319 c 0
 206 314 175 330 156 339 c 2
 156 339 152 341 152 341 c 1
 148 343 l 2
 146 344 145 345 143 345 c 0
 127 323 97 312 69 321 c 0
 33 332 13 370 24 406 c 0
 33 438 63 478 115 485 c 0
 159 490 191 474 209 465 c 2
 209 465 213 463 213 463 c 1
 218 460 l 2
 219 460 221 459 222 458 c 1
 239 480 268 491 296 483 c 0
EndSplineSet
EndChar
StartChar: exclamdown
Encoding: 161 161 4
Width: 307
Flags: MW
HStem: 0 21G<98 150> 576 187<98 150>
VStem: 30 187<93 478 643.5 695>
LayerCount: 2
Back
Fore
SplineSet
124 576 m 0
 72 576 30 618 30 669 c 0
 30 721 72 763 124 763 c 0
 176 763 217 721 217 669 c 0
 217 618 176 576 124 576 c 0
124 0 m 0
 72 0 30 42 30 93 c 2
 30 478 l 2
 30 530 72 572 124 572 c 0
 176 572 217 530 217 478 c 2
 217 93 l 2
 217 42 176 0 124 0 c 0
EndSplineSet
EndChar
StartChar: sterling
Encoding: 163 163 144
Width: 589
Flags: MW
HStem: 0 187<67.5 93 93 99 300 495> 303 187<67.5 114 93 114 301 322> 463 27 594 187<328.5 349>
VStem: 114 187<207 303 204 303 490 556> 376 39 376 187<530.5 566.5>
LayerCount: 2
Back
Fore
SplineSet
495 187 m 2xdc
 547 187 589 145 589 93 c 0
 589 42 547 0 495 0 c 2
 93 0 l 2
 42 0 0 42 0 93 c 0
 0 145 42 187 93 187 c 0
 105 187 114 196 114 207 c 2
 114 303 l 1
 93 303 l 2xdc
 42 303 0 345 0 396 c 0
 0 448 42 490 93 490 c 2
 114 490 l 1
 114 556 l 2
 114 680 215 781 339 781 c 0
 462 781 563 680 563 556 c 0
 563 505 521 463 470 463 c 0xba
 418 463 376 505 376 556 c 0
 376 577 359 594 339 594 c 0
 318 594 301 577 301 556 c 2
 301 490 l 1
 322 490 l 2
 373 490 415 448 415 396 c 0
 415 345 373 303 322 303 c 2
 301 303 l 1
 301 207 l 2
 301 201 301 194 300 187 c 1
 495 187 l 2xdc
EndSplineSet
EndChar
StartChar: yen
Encoding: 165 165 145
Width: 561
Flags: MW
HStem: 0 21G<254.5 306> 122 170<121.5 187 145 187 374 416> 292 22<145 187 374 416 416 439>
VStem: 187 187<93 122 67 122 292 314>
LayerCount: 2
Back
Fore
SplineSet
513 750 m 0xb0
 558 725 573 667 548 623 c 2
 467 482 l 1
 505 473 533 439 533 399 c 0
 533 352 495 314 448 314 c 2
 374 314 l 1xb0
 374 292 l 1
 416 292 l 2
 462 292 501 254 501 207 c 0
 501 160 462 122 416 122 c 2
 374 122 l 1
 374 93 l 2
 374 41 332 0 280 0 c 0
 229 0 187 41 187 93 c 2
 187 122 l 1
 145 122 l 2xd0
 98 122 60 160 60 207 c 0
 60 254 98 292 145 292 c 2
 187 292 l 1
 187 314 l 1
 111 314 l 2
 64 314 26 352 26 399 c 0
 26 440 55 474 93 482 c 1
 13 623 l 2
 -12 667 3 725 48 750 c 0
 93 776 150 760 176 715 c 2
 280 531 l 1
 385 715 l 2
 411 760 468 776 513 750 c 0xb0
EndSplineSet
EndChar
StartChar: section
Encoding: 167 167 165
Width: 491
Flags: MW
HStem: -219 187<142 202 168 202> 577 187<278.5 334 289 334>
VStem: 15 187<261 285> 63 187<528.5 549 528.5 600.5> 240 188<-4 16.5> 289 187<261 285>
LayerCount: 2
Back
Fore
SplineSet
476 273 m 0xd4
 476 207 448 148 405 106 c 1
 419 76 428 42 428 7 c 0
 428 -118 326 -219 202 -219 c 2
 168 -219 l 2
 116 -219 75 -177 75 -126 c 0
 75 -74 116 -32 168 -32 c 2
 202 -32 l 2
 223 -32 240 -15 240 7 c 0
 240 26 227 42 208 45 c 2
 208 45 207 45 207 45 c 1
 98 64 15 159 15 273 c 0xe8
 15 338 42 397 86 439 c 1
 71 469 63 503 63 538 c 0
 63 663 165 764 289 764 c 2xd4
 334 764 l 2
 386 764 428 723 428 671 c 0xe8
 428 619 386 577 334 577 c 2
 289 577 l 2
 268 577 250 560 250 538 c 0
 250 519 264 503 283 500 c 2
 283 500 284 500 285 500 c 0
 393 481 476 386 476 273 c 0xd4
289 273 m 0
 289 297 269 316 245 316 c 0
 222 316 202 297 202 273 c 0
 202 249 222 229 245 229 c 0
 269 229 289 249 289 273 c 0
EndSplineSet
EndChar
StartChar: dieresis
Encoding: 168 168 178
Width: 340
Flags: MW
HStem: 767 147<73.5 114.5 225.5 266.5>
VStem: 20 148<820 860.5> 172 148<820 860.5>
LayerCount: 2
Back
Fore
SplineSet
94 914 m 0
 135 914 168 881 168 840 c 0
 168 800 135 767 94 767 c 0
 53 767 20 800 20 840 c 0
 20 881 53 914 94 914 c 0
246 914 m 0
 287 914 320 881 320 840 c 0
 320 800 287 767 246 767 c 0
 205 767 172 800 172 840 c 0
 172 881 205 914 246 914 c 0
EndSplineSet
EndChar
StartChar: copyright
Encoding: 169 169 168
Width: 830
Flags: MW
HStem: -19 158<348.5 481.5 348.5 525.5> 157 159<397 426 397 452> 446 159<397 426> 622 159<348.5 481.5>
VStem: 15 159<314.5 447.5 314.5 491.5> 191 159<363 399 363 442.5> 657 158<314.5 447.5>
LayerCount: 2
Back
Fore
SplineSet
415 781 m 0
 636 781 815 602 815 381 c 0
 815 160 636 -19 415 -19 c 0
 195 -19 15 160 15 381 c 0
 15 602 195 781 415 781 c 0
415 139 m 0
 548 139 657 248 657 381 c 0
 657 514 548 622 415 622 c 0
 282 622 174 514 174 381 c 0
 174 248 282 139 415 139 c 0
415 605 m 0
 489 605 558 568 600 507 c 0
 625 471 615 422 579 397 c 0
 543 372 494 381 469 417 c 0
 457 435 437 446 415 446 c 0
 379 446 350 417 350 381 c 0
 350 345 379 316 415 316 c 0
 437 316 457 326 469 344 c 0
 494 380 543 390 579 365 c 0
 615 340 625 291 600 254 c 0
 558 194 489 157 415 157 c 0
 292 157 191 257 191 381 c 0
 191 504 292 605 415 605 c 0
EndSplineSet
EndChar
StartChar: ordfeminine
Encoding: 170 170 167
Width: 444
Flags: MW
HStem: 343 21G<152 225 340 376> 742 20G<340 376> 743 20G<152 225>
LayerCount: 2
Back
Fore
SplineSet
350 762 m 0xc0
 402 762 444 720 444 668 c 2
 444 437 l 2
 444 385 402 343 350 343 c 0
 330 343 310 350 295 361 c 1
 269 350 240 343 210 343 c 0
 94 343 0 437 0 553 c 0
 0 668 94 763 210 763 c 0xa0
 240 763 270 756 296 744 c 1
 311 755 330 762 350 762 c 0xc0
210 530 m 0
 222 530 232 540 232 553 c 0
 232 565 222 575 210 575 c 0
 197 575 187 565 187 553 c 0
 187 540 197 530 210 530 c 0
EndSplineSet
EndChar
StartChar: registered
Encoding: 174 174 169
Width: 831
Flags: MW
HStem: -19 158<414 429.5 414 526> 417 159<405 465 405 405> 622 159<349 482.5>
VStem: 15 159<347.5 447.5 347.5 491.5> 246 159<209 417> 657 159<357.5 447.5>
LayerCount: 2
Back
Fore
SplineSet
416 781 m 0
 636 781 816 602 816 381 c 0
 816 160 636 -19 416 -19 c 0
 195 -19 15 160 15 381 c 0
 15 602 195 781 416 781 c 0
405 140 m 2
 408 140 412 139 416 139 c 0
 443 139 470 144 495 153 c 1
 419 286 l 2
 407 307 405 333 415 356 c 0
 424 379 444 396 467 402 c 0
 470 403 473 405 473 409 c 0
 473 414 470 417 465 417 c 2
 405 417 l 1
 405 140 l 2
621 253 m 1
 644 290 657 334 657 381 c 0
 657 514 549 622 416 622 c 0
 282 622 174 514 174 381 c 0
 174 314 202 253 246 209 c 1
 246 496 l 2
 246 540 282 576 326 576 c 2
 465 576 l 2
 557 576 632 501 632 409 c 0
 632 369 617 332 593 302 c 1
 621 253 l 1
EndSplineSet
EndChar
StartChar: acute
Encoding: 180 180 174
Width: 263
Flags: W
LayerCount: 2
Back
Fore
SplineSet
135 952 m 2
 165 974 208 967 230 937 c 0
 252 906 245 864 214 842 c 2
 128 780 l 2
 98 758 55 765 33 795 c 0
 11 826 18 868 49 890 c 1
 49 890 l 1
 135 952 l 2
EndSplineSet
EndChar
StartChar: paragraph
Encoding: 182 182 179
Width: 737
Flags: MW
HStem: -219 21G<390 442 587 639> 742 20G<272 416 416 442 587 639>
VStem: 323 187<-126 249 249 249> 520 187<-126 669>
LayerCount: 2
Back
Fore
SplineSet
416 762 m 2
 468 762 510 720 510 669 c 2
 510 -126 l 2
 510 -178 468 -219 416 -219 c 0
 364 -219 323 -178 323 -126 c 2
 323 249 l 1
 271 249 l 2
 130 249 15 364 15 506 c 0
 15 647 130 762 272 762 c 2
 416 762 l 2
613 762 m 0
 665 762 707 720 707 669 c 2
 707 -126 l 2
 707 -178 665 -219 613 -219 c 0
 561 -219 520 -178 520 -126 c 2
 520 669 l 2
 520 720 561 762 613 762 c 0
EndSplineSet
EndChar
StartChar: periodcentered
Encoding: 183 183 157
Width: 207
Flags: MW
HStem: 288 187<78 130>
VStem: 10 187<355 407>
LayerCount: 2
Back
Fore
SplineSet
197 381 m 0
 197 329 156 288 104 288 c 0
 52 288 10 329 10 381 c 0
 10 433 52 475 104 475 c 0
 156 475 197 433 197 381 c 0
EndSplineSet
EndChar
StartChar: ordmasculine
Encoding: 186 186 166
Width: 420
Flags: MW
HStem: 343 21G<152.5 268> 743 20G<152.5 268>
LayerCount: 2
Back
Fore
SplineSet
210 763 m 0
 326 763 420 668 420 553 c 0
 420 437 326 343 210 343 c 0
 95 343 0 437 0 553 c 0
 0 668 95 763 210 763 c 0
210 530 m 0
 223 530 233 540 233 553 c 0
 233 565 223 575 210 575 c 0
 198 575 188 565 188 553 c 0
 188 540 198 530 210 530 c 0
EndSplineSet
EndChar
StartChar: questiondown
Encoding: 191 191 7
Width: 578
Flags: MW
HStem: 0 187<252 290.5 252 342> 594 187<245.5 297>
VStem: 15 187<237.5 276 237.5 311> 178 187<495 496 393.5 522 661.5 713> 341 187<237.5 260.5>
LayerCount: 2
Back
Fore
SplineSet
271 594 m 0xd0
 220 594 178 636 178 687 c 0
 178 739 220 781 271 781 c 0
 323 781 365 739 365 687 c 0
 365 636 323 594 271 594 c 0xd0
271 0 m 0
 130 0 15 115 15 257 c 0xe8
 15 365 83 458 178 495 c 1
 178 496 l 2
 178 548 220 590 271 590 c 0
 323 590 365 548 365 496 c 2
 365 419 l 2xd0
 365 368 323 326 271 326 c 0
 233 326 202 295 202 257 c 0
 202 218 233 187 271 187 c 0
 310 187 341 218 341 257 c 0
 341 264 339 271 337 278 c 0
 321 327 348 380 397 396 c 0
 446 412 499 386 515 337 c 0
 523 311 528 284 528 257 c 0xe8
 528 115 413 0 271 0 c 0
EndSplineSet
EndChar
StartChar: Agrave
Encoding: 192 192 41
Width: 583
Flags: MW
HStem: 743 20G<272 311.5>
LayerCount: 2
Back
Fore
SplineSet
577 124 m 2
 588 93 582 59 561 34 c 0
 540 9 508 -3 475 1 c 2
 291 28 l 2
 240 35 205 83 212 134 c 0
 220 185 267 221 318 213 c 2
 351 208 l 1
 292 381 l 1
 183 64 l 2
 166 15 113 -11 64 5 c 0
 15 22 -11 75 6 124 c 2
 203 700 l 2
 216 738 252 763 292 763 c 0
 331 763 367 738 380 700 c 2
 577 124 l 2
333 891 m 2
 363 869 370 826 348 796 c 0
 326 765 284 758 253 780 c 2
 167 842 l 2
 137 864 130 907 152 937 c 0
 174 968 216 975 247 953 c 2
 333 891 l 2
EndSplineSet
EndChar
StartChar: Ccedilla
Encoding: 199 199 53
Width: 786
Flags: MW
HStem: -129 21G<390.5 437.5> 593 187<355.5 452.5>
VStem: 15 187<322.5 439 322.5 491> 329 170<-67.5 -10 -67.5 -10>
LayerCount: 2
Back
Fore
SplineSet
727 317 m 0
 772 292 789 235 764 190 c 0
 708 86 610 14 498 -10 c 1
 499 -44 l 2
 499 -91 461 -129 414 -129 c 0
 367 -129 329 -91 329 -44 c 2
 329 -10 l 1
 149 29 15 189 15 381 c 0
 15 601 194 780 414 780 c 0
 559 780 694 700 764 572 c 0
 789 527 772 470 727 445 c 0
 681 420 624 437 600 482 c 0
 562 550 491 593 414 593 c 0
 297 593 202 497 202 381 c 0
 202 264 297 169 414 169 c 0
 491 169 563 211 600 279 c 0
 625 325 681 341 727 317 c 0
EndSplineSet
EndChar
StartChar: Icircumflex
Encoding: 206 206 76
Width: 247
Flags: MW
HStem: 0 21G<97 149> 743 20G<97 149>
VStem: 30 187<68 94 94 670>
LayerCount: 2
Back
Fore
SplineSet
30 670 m 2
 30 721 71 763 123 763 c 0
 175 763 217 721 217 670 c 1
 217 670 l 1
 217 94 l 1
 217 94 l 1
 217 42 175 0 123 0 c 0
 71 0 30 42 30 94 c 1
 30 94 l 1
 30 670 l 2
249 866 m 2
 279 844 286 802 264 771 c 0
 242 741 200 734 169 756 c 2
 123 789 l 1
 76 756 l 2
 46 734 3 741 -19 771 c 0
 -40 802 -34 844 -3 866 c 2
 83 928 l 2
 107 945 139 945 163 928 c 2
 249 866 l 2
EndSplineSet
EndChar
StartChar: Ntilde
Encoding: 209 209 94
Width: 580
Flags: MW
HStem: -1 21G<95.5 147 433 484.5> 593 187<269.5 310.5>
VStem: 28 187<92 518> 365 187<66 92 92 518>
LayerCount: 2
Back
Fore
SplineSet
28 92 m 2
 28 518 l 2
 28 662 145 780 290 780 c 0
 434 780 552 662 552 518 c 2
 552 92 l 1
 552 92 l 1
 552 40 510 -1 459 -1 c 0
 407 -1 365 40 365 92 c 1
 365 92 l 1
 365 518 l 2
 365 559 331 593 290 593 c 0
 249 593 215 559 215 518 c 2
 215 92 l 1
 215 92 l 1
 215 40 173 -1 121 -1 c 0
 70 -1 28 40 28 92 c 2
427 942 m 0
 463 931 484 893 473 857 c 0
 463 824 433 784 381 778 c 0
 337 773 306 789 287 798 c 2
 287 798 283 800 283 800 c 1
 279 802 l 2
 277 803 276 804 274 804 c 0
 258 782 228 771 200 780 c 0
 164 791 144 829 155 865 c 0
 164 897 194 937 246 944 c 0
 290 949 322 933 340 924 c 2
 340 924 344 922 344 922 c 1
 349 919 l 2
 350 919 352 918 353 917 c 1
 370 939 399 950 427 942 c 0
EndSplineSet
EndChar
StartChar: Ograve
Encoding: 210 210 101
Width: 828
Flags: MW
HStem: -18 187<355.5 472.5 355.5 524> 593 187<355.5 472.5>
VStem: 15 187<322.5 439.5 322.5 491> 626 187<322.5 439.5>
LayerCount: 2
Back
Fore
SplineSet
626 381 m 0
 626 498 531 593 414 593 c 0
 297 593 202 498 202 381 c 0
 202 264 297 169 414 169 c 0
 531 169 626 264 626 381 c 0
414 780 m 0
 634 780 813 601 813 381 c 0
 813 161 634 -18 414 -18 c 0
 194 -18 15 161 15 381 c 0
 15 601 194 780 414 780 c 0
331 891 m 2
 361 869 368 826 346 796 c 0
 324 765 282 758 251 780 c 2
 165 842 l 2
 135 864 128 907 150 937 c 0
 172 968 214 975 245 953 c 2
 331 891 l 2
EndSplineSet
EndChar
StartChar: Ocircumflex
Encoding: 212 212 99
Width: 828
Flags: MW
HStem: -18 187<355.5 472.5 355.5 524> 593 187<355.5 472.5>
VStem: 15 187<322.5 439.5 322.5 491> 626 187<322.5 439.5>
LayerCount: 2
Back
Fore
SplineSet
626 381 m 0
 626 498 531 593 414 593 c 0
 297 593 202 498 202 381 c 0
 202 264 297 169 414 169 c 0
 531 169 626 264 626 381 c 0
414 780 m 0
 634 780 813 601 813 381 c 0
 813 161 634 -18 414 -18 c 0
 194 -18 15 161 15 381 c 0
 15 601 194 780 414 780 c 0
542 900 m 2
 572 878 579 836 557 805 c 0
 535 775 493 768 462 790 c 2
 416 823 l 1
 369 790 l 2
 339 768 296 775 274 805 c 0
 253 836 259 878 290 900 c 2
 376 962 l 2
 400 979 432 979 456 962 c 2
 542 900 l 2
EndSplineSet
EndChar
StartChar: Otilde
Encoding: 213 213 102
Width: 828
Flags: MW
HStem: -18 187<355.5 472.5 355.5 524> 593 187<355.5 472.5>
VStem: 15 187<322.5 439.5 322.5 491> 626 187<322.5 439.5>
LayerCount: 2
Back
Fore
SplineSet
626 381 m 0
 626 498 531 593 414 593 c 0
 297 593 202 498 202 381 c 0
 202 264 297 169 414 169 c 0
 531 169 626 264 626 381 c 0
414 780 m 0
 634 780 813 601 813 381 c 0
 813 161 634 -18 414 -18 c 0
 194 -18 15 161 15 381 c 0
 15 601 194 780 414 780 c 0
551 944 m 0
 587 933 608 895 597 859 c 0
 587 826 557 786 505 780 c 0
 461 775 430 791 411 800 c 2
 411 800 407 802 407 802 c 1
 403 804 l 2
 401 805 400 806 398 806 c 0
 382 784 352 773 324 782 c 0
 288 793 268 831 279 867 c 0
 288 899 318 939 370 946 c 0
 414 951 446 935 464 926 c 2
 464 926 468 924 468 924 c 1
 473 921 l 2
 474 921 476 920 477 919 c 1
 494 941 523 952 551 944 c 0
EndSplineSet
EndChar
StartChar: Odieresis
Encoding: 214 214 100
Width: 828
Flags: MW
HStem: -18 187<355.5 472.5 355.5 524> 593 187<355.5 472.5> 778 147<317.5 358.5 469.5 510.5>
VStem: 15 187<322.5 439.5 322.5 491> 264 148<831 871.5> 416 148<831 871.5> 626 187<322.5 439.5>
LayerCount: 2
Back
Fore
SplineSet
626 381 m 0xd2
 626 498 531 593 414 593 c 0
 297 593 202 498 202 381 c 0
 202 264 297 169 414 169 c 0
 531 169 626 264 626 381 c 0xd2
414 780 m 0
 634 780 813 601 813 381 c 0
 813 161 634 -18 414 -18 c 0
 194 -18 15 161 15 381 c 0
 15 601 194 780 414 780 c 0
338 925 m 0x2c
 379 925 412 892 412 851 c 0
 412 811 379 778 338 778 c 0
 297 778 264 811 264 851 c 0
 264 892 297 925 338 925 c 0x2c
490 925 m 0
 531 925 564 892 564 851 c 0
 564 811 531 778 490 778 c 0
 449 778 416 811 416 851 c 0
 416 892 449 925 490 925 c 0
EndSplineSet
EndChar
StartChar: multiply
Encoding: 215 215 24
Width: 494
Flags: W
LayerCount: 2
Back
Fore
SplineSet
457 160 m 2
 493 124 493 64 457 28 c 0
 420 -9 361 -9 324 28 c 2
 247 105 l 1
 170 28 l 2
 133 -9 74 -9 37 28 c 0
 1 64 1 124 37 160 c 2
 115 237 l 1
 49 303 l 2
 12 340 12 399 49 436 c 0
 85 472 145 472 181 436 c 2
 247 370 l 1
 313 436 l 2
 350 472 409 472 445 436 c 0
 482 399 482 340 445 303 c 2
 379 237 l 1
 457 160 l 2
EndSplineSet
EndChar
StartChar: Ugrave
Encoding: 217 217 125
Width: 636
Flags: MW
HStem: -19 187<289.5 346.5 289.5 398> 742 20G<95 147 489 541>
VStem: 28 187<272 668> 421 187<272 668>
LayerCount: 2
Back
Fore
SplineSet
515 762 m 0
 567 762 608 720 608 668 c 2
 608 272 l 2
 608 111 478 -19 318 -19 c 0
 158 -19 28 111 28 272 c 2
 28 668 l 2
 28 720 69 762 121 762 c 0
 173 762 215 720 215 668 c 2
 215 272 l 2
 215 215 261 168 318 168 c 0
 375 168 421 215 421 272 c 2
 421 668 l 2
 421 720 463 762 515 762 c 0
226 877 m 2
 256 855 263 812 241 782 c 0
 219 751 177 744 146 766 c 2
 60 828 l 2
 30 850 23 893 45 923 c 0
 67 954 109 961 140 939 c 2
 226 877 l 2
EndSplineSet
EndChar
StartChar: Ucircumflex
Encoding: 219 219 123
Width: 636
Flags: MW
HStem: -19 187<289.5 346.5 289.5 398> 742 20G<95 147 489 541>
VStem: 28 187<272 668> 421 187<272 668>
LayerCount: 2
Back
Fore
SplineSet
515 762 m 0
 567 762 608 720 608 668 c 2
 608 272 l 2
 608 111 478 -19 318 -19 c 0
 158 -19 28 111 28 272 c 2
 28 668 l 2
 28 720 69 762 121 762 c 0
 173 762 215 720 215 668 c 2
 215 272 l 2
 215 215 261 168 318 168 c 0
 375 168 421 215 421 272 c 2
 421 668 l 2
 421 720 463 762 515 762 c 0
444 870 m 2
 474 848 481 806 459 775 c 0
 437 745 395 738 364 760 c 2
 318 793 l 1
 271 760 l 2
 241 738 198 745 176 775 c 0
 155 806 161 848 192 870 c 2
 278 932 l 2
 302 949 334 949 358 932 c 2
 444 870 l 2
EndSplineSet
EndChar
StartChar: Udieresis
Encoding: 220 220 124
Width: 636
Flags: MW
HStem: -19 187<289.5 346.5 289.5 398> 742 20G<95 147 489 541> 743 147<221.5 262.5 373.5 414.5>
VStem: 28 187<272 668> 168 148<796 836.5> 320 148<796 836.5> 421 187<272 668>
LayerCount: 2
Back
Fore
SplineSet
515 762 m 0xd2
 567 762 608 720 608 668 c 2
 608 272 l 2
 608 111 478 -19 318 -19 c 0
 158 -19 28 111 28 272 c 2
 28 668 l 2
 28 720 69 762 121 762 c 0
 173 762 215 720 215 668 c 2
 215 272 l 2
 215 215 261 168 318 168 c 0
 375 168 421 215 421 272 c 2
 421 668 l 2
 421 720 463 762 515 762 c 0xd2
242 890 m 0x2c
 283 890 316 857 316 816 c 0
 316 776 283 743 242 743 c 0
 201 743 168 776 168 816 c 0
 168 857 201 890 242 890 c 0x2c
394 890 m 0
 435 890 468 857 468 816 c 0
 468 776 435 743 394 743 c 0
 353 743 320 776 320 816 c 0
 320 857 353 890 394 890 c 0
EndSplineSet
EndChar
StartChar: aacute
Encoding: 225 225 45
Width: 580
Flags: MW
HStem: -1 21G<96 147.5 433 484.5> 234 187<215 365 215 365> 593 187<269.5 311>
VStem: 28 187<93 234 421 518> 365 187<93 234 234 234 421 518>
LayerCount: 2
Back
Fore
SplineSet
290 780 m 0
 435 780 552 662 552 518 c 2
 552 93 l 2
 552 41 510 -1 459 -1 c 0
 407 -1 365 41 365 93 c 2
 365 234 l 1
 215 234 l 1
 215 93 l 2
 215 41 173 -1 122 -1 c 0
 70 -1 28 41 28 93 c 2
 28 518 l 2
 28 662 146 780 290 780 c 0
215 421 m 1
 365 421 l 1
 365 518 l 2
 365 559 332 593 290 593 c 0
 249 593 215 559 215 518 c 2
 215 421 l 1
438 953 m 2
 468 975 511 968 533 938 c 0
 555 907 548 865 517 843 c 2
 431 781 l 2
 401 759 358 766 336 796 c 0
 314 827 321 869 352 891 c 1
 352 891 l 1
 438 953 l 2
EndSplineSet
EndChar
StartChar: acircumflex
Encoding: 226 226 46
Width: 580
Flags: MW
HStem: -1 21G<96 147.5 433 484.5> 234 187<215 365 215 365> 593 187<269.5 311>
VStem: 28 187<93 234 421 518> 365 187<93 234 234 234 421 518>
LayerCount: 2
Back
Fore
SplineSet
290 780 m 0
 435 780 552 662 552 518 c 2
 552 93 l 2
 552 41 510 -1 459 -1 c 0
 407 -1 365 41 365 93 c 2
 365 234 l 1
 215 234 l 1
 215 93 l 2
 215 41 173 -1 122 -1 c 0
 70 -1 28 41 28 93 c 2
 28 518 l 2
 28 662 146 780 290 780 c 0
215 421 m 1
 365 421 l 1
 365 518 l 2
 365 559 332 593 290 593 c 0
 249 593 215 559 215 518 c 2
 215 421 l 1
417 896 m 2
 447 874 454 832 432 801 c 0
 410 771 368 764 337 786 c 2
 291 819 l 1
 244 786 l 2
 214 764 171 771 149 801 c 0
 128 832 134 874 165 896 c 2
 251 958 l 2
 275 975 307 975 331 958 c 2
 417 896 l 2
EndSplineSet
EndChar
StartChar: atilde
Encoding: 227 227 49
Width: 580
Flags: MW
HStem: -1 21G<96 147.5 433 484.5> 234 187<215 365 215 365> 593 187<269.5 311>
VStem: 28 187<93 234 421 518> 365 187<93 234 234 234 421 518>
LayerCount: 2
Back
Fore
SplineSet
290 780 m 0
 435 780 552 662 552 518 c 2
 552 93 l 2
 552 41 510 -1 459 -1 c 0
 407 -1 365 41 365 93 c 2
 365 234 l 1
 215 234 l 1
 215 93 l 2
 215 41 173 -1 122 -1 c 0
 70 -1 28 41 28 93 c 2
 28 518 l 2
 28 662 146 780 290 780 c 0
215 421 m 1
 365 421 l 1
 365 518 l 2
 365 559 332 593 290 593 c 0
 249 593 215 559 215 518 c 2
 215 421 l 1
427 941 m 0
 463 930 484 892 473 856 c 0
 463 823 433 783 381 777 c 0
 337 772 306 788 287 797 c 2
 287 797 283 799 283 799 c 1
 279 801 l 2
 277 802 276 803 274 803 c 0
 258 781 228 770 200 779 c 0
 164 790 144 828 155 864 c 0
 164 896 194 936 246 943 c 0
 290 948 322 932 340 923 c 2
 340 923 344 921 344 921 c 1
 349 918 l 2
 350 918 352 917 353 916 c 1
 370 938 399 949 427 941 c 0
EndSplineSet
EndChar
StartChar: ccedilla
Encoding: 231 231 55
Width: 568
Flags: MW
HStem: -129 21G<262.5 309.5> 593 187<265.5 306.5>
VStem: 24 187<244 518> 201 170<-67.5 -3 -67.5 -3> 361 187<244 254 186.5 280 509 518>
LayerCount: 2
Back
Fore
SplineSet
286 780 m 0xe8
 431 780 548 663 548 518 c 2
 548 509 l 2
 548 457 506 415 455 415 c 0
 403 415 361 457 361 509 c 2
 361 518 l 2
 361 560 327 593 286 593 c 0
 245 593 211 560 211 518 c 2
 211 244 l 2
 211 203 245 169 286 169 c 0
 327 169 361 203 361 244 c 2
 361 254 l 2
 361 306 403 348 455 348 c 0
 506 348 548 306 548 254 c 2
 548 244 l 2xe8
 548 129 474 31 370 -4 c 1
 371 -44 l 2
 371 -91 333 -129 286 -129 c 0
 239 -129 201 -91 201 -44 c 2
 201 -3 l 1xd0
 98 32 24 130 24 244 c 2
 24 518 l 2
 24 663 142 780 286 780 c 0xe8
EndSplineSet
EndChar
StartChar: ecircumflex
Encoding: 234 234 65
Width: 490
Flags: MW
HStem: 0 187<185.5 393 247 393> 319 187<212 344 212 344> 576 187<237 377 247 377>
VStem: 25 187<222 319 506 541>
LayerCount: 2
Back
Fore
SplineSet
393 187 m 2
 444 187 486 145 486 94 c 0
 486 42 444 0 393 0 c 2
 247 0 l 2
 124 0 25 100 25 222 c 2
 25 541 l 2
 25 664 124 763 247 763 c 2
 377 763 l 2
 428 763 470 721 470 670 c 0
 470 618 428 576 377 576 c 2
 247 576 l 2
 227 576 212 560 212 541 c 2
 212 506 l 1
 344 506 l 2
 396 506 438 464 438 413 c 0
 438 361 396 319 344 319 c 2
 212 319 l 1
 212 222 l 2
 212 203 227 187 247 187 c 2
 393 187 l 2
426 891 m 2
 456 869 463 827 441 796 c 0
 419 766 377 759 346 781 c 2
 300 814 l 1
 253 781 l 2
 223 759 180 766 158 796 c 0
 137 827 143 869 174 891 c 2
 260 953 l 2
 284 970 316 970 340 953 c 2
 426 891 l 2
EndSplineSet
EndChar
StartChar: edieresis
Encoding: 235 235 66
Width: 490
Flags: MW
HStem: 0 187<185.5 393 247 393> 319 187<212 344 212 344> 576 187<237 377 247 377> 767 147<171.5 212.5 323.5 364.5>
VStem: 25 187<222 319 506 541> 118 148<820 860.5> 270 148<820 860.5>
LayerCount: 2
Back
Fore
SplineSet
393 187 m 2xe8
 444 187 486 145 486 94 c 0
 486 42 444 0 393 0 c 2
 247 0 l 2
 124 0 25 100 25 222 c 2
 25 541 l 2
 25 664 124 763 247 763 c 2
 377 763 l 2
 428 763 470 721 470 670 c 0
 470 618 428 576 377 576 c 2
 247 576 l 2
 227 576 212 560 212 541 c 2
 212 506 l 1
 344 506 l 2
 396 506 438 464 438 413 c 0
 438 361 396 319 344 319 c 2
 212 319 l 1
 212 222 l 2
 212 203 227 187 247 187 c 2
 393 187 l 2xe8
192 914 m 0x16
 233 914 266 881 266 840 c 0
 266 800 233 767 192 767 c 0
 151 767 118 800 118 840 c 0
 118 881 151 914 192 914 c 0x16
344 914 m 0
 385 914 418 881 418 840 c 0
 418 800 385 767 344 767 c 0
 303 767 270 800 270 840 c 0
 270 881 303 914 344 914 c 0
EndSplineSet
EndChar
StartChar: igrave
Encoding: 236 236 83
Width: 247
Flags: MW
HStem: 0 21G<97 149> 743 20G<97 149>
VStem: 30 187<68 94 94 670>
LayerCount: 2
Back
Fore
SplineSet
30 670 m 2
 30 721 71 763 123 763 c 0
 175 763 217 721 217 670 c 1
 217 670 l 1
 217 94 l 1
 217 94 l 1
 217 42 175 0 123 0 c 0
 71 0 30 42 30 94 c 1
 30 94 l 1
 30 670 l 2
164 891 m 2
 194 869 201 826 179 796 c 0
 157 765 115 758 84 780 c 2
 -2 842 l 2
 -32 864 -39 907 -17 937 c 0
 5 968 47 975 78 953 c 2
 164 891 l 2
EndSplineSet
EndChar
StartChar: iacute
Encoding: 237 237 80
Width: 247
Flags: MW
HStem: 0 21G<97 149> 743 20G<97 149>
VStem: 30 187<68 94 94 670>
LayerCount: 2
Back
Fore
SplineSet
30 670 m 2
 30 721 71 763 123 763 c 0
 175 763 217 721 217 670 c 1
 217 670 l 1
 217 94 l 1
 217 94 l 1
 217 42 175 0 123 0 c 0
 71 0 30 42 30 94 c 1
 30 94 l 1
 30 670 l 2
169 952 m 2
 199 974 242 967 264 937 c 0
 286 906 279 864 248 842 c 2
 162 780 l 2
 132 758 89 765 67 795 c 0
 45 826 52 868 83 890 c 1
 83 890 l 1
 169 952 l 2
EndSplineSet
EndChar
StartChar: idieresis
Encoding: 239 239 82
Width: 247
Flags: MW
HStem: 0 21G<97 149> 743 20G<97 149> 749 147<26.5 67.5 178.5 219.5>
VStem: -27 148<802 842.5> 30 187<68 94 94 670> 125 148<802 842.5>
LayerCount: 2
Back
Fore
SplineSet
47 896 m 0x34
 88 896 121 863 121 822 c 0
 121 782 88 749 47 749 c 0
 6 749 -27 782 -27 822 c 0
 -27 863 6 896 47 896 c 0x34
199 896 m 0
 240 896 273 863 273 822 c 0
 273 782 240 749 199 749 c 0
 158 749 125 782 125 822 c 0
 125 863 158 896 199 896 c 0
30 670 m 2xc8
 30 721 71 763 123 763 c 0
 175 763 217 721 217 670 c 1
 217 670 l 1
 217 94 l 1
 217 94 l 1
 217 42 175 0 123 0 c 0
 71 0 30 42 30 94 c 1
 30 94 l 1
 30 670 l 2xc8
EndSplineSet
EndChar
StartChar: ntilde
Encoding: 241 241 96
Width: 580
Flags: MW
HStem: 0 21G<97.5 149>
VStem: 30 187<93 321> 363 187<441 669>
LayerCount: 2
Back
Fore
SplineSet
457 763 m 0
 508 763 550 721 550 669 c 2
 550 93 l 2
 550 51 522 14 481 3 c 0
 440 -8 397 10 376 46 c 2
 217 321 l 1
 217 93 l 2
 217 42 175 0 123 0 c 0
 72 0 30 42 30 93 c 2
 30 669 l 2
 30 711 58 748 99 759 c 0
 140 770 183 752 204 716 c 2
 363 441 l 1
 363 669 l 2
 363 721 405 763 457 763 c 0
417 906 m 0
 453 895 474 857 463 821 c 0
 453 788 423 748 371 742 c 0
 327 737 296 753 277 762 c 2
 277 762 273 764 273 764 c 1
 269 766 l 2
 267 767 266 768 264 768 c 0
 248 746 218 735 190 744 c 0
 154 755 134 793 145 829 c 0
 154 861 184 901 236 908 c 0
 280 913 312 897 330 888 c 2
 330 888 334 886 334 886 c 1
 339 883 l 2
 340 883 342 882 343 881 c 1
 360 903 389 914 417 906 c 0
EndSplineSet
EndChar
StartChar: otilde
Encoding: 245 245 109
Width: 572
Flags: MW
HStem: -18 187<265.5 306.5 265.5 358.5> 593 187<265.5 306.5>
VStem: 24 187<244 518> 361 187<244 518>
LayerCount: 2
Back
Fore
SplineSet
361 244 m 2
 361 518 l 2
 361 559 327 593 286 593 c 0
 245 593 211 559 211 518 c 2
 211 244 l 2
 211 203 245 169 286 169 c 0
 327 169 361 203 361 244 c 2
548 518 m 2
 548 244 l 2
 548 99 431 -18 286 -18 c 0
 142 -18 24 99 24 244 c 2
 24 518 l 2
 24 662 142 780 286 780 c 0
 431 780 548 662 548 518 c 2
425 941 m 0
 461 930 482 892 471 856 c 0
 461 823 431 783 379 777 c 0
 335 772 304 788 285 797 c 2
 285 797 281 799 281 799 c 1
 277 801 l 2
 275 802 274 803 272 803 c 0
 256 781 226 770 198 779 c 0
 162 790 142 828 153 864 c 0
 162 896 192 936 244 943 c 0
 288 948 320 932 338 923 c 2
 338 923 342 921 342 921 c 1
 347 918 l 2
 348 918 350 917 351 916 c 1
 368 938 397 949 425 941 c 0
EndSplineSet
EndChar
StartChar: odieresis
Encoding: 246 246 107
Width: 572
Flags: MW
HStem: -18 187<265.5 306.5 265.5 358.5> 593 187<265.5 306.5> 775 147<189.5 230.5 341.5 382.5>
VStem: 24 187<244 518> 136 148<828 868.5> 288 148<828 868.5> 361 187<244 518>
LayerCount: 2
Back
Fore
SplineSet
361 244 m 2xd2
 361 518 l 2
 361 559 327 593 286 593 c 0
 245 593 211 559 211 518 c 2
 211 244 l 2
 211 203 245 169 286 169 c 0
 327 169 361 203 361 244 c 2xd2
548 518 m 2
 548 244 l 2
 548 99 431 -18 286 -18 c 0
 142 -18 24 99 24 244 c 2
 24 518 l 2
 24 662 142 780 286 780 c 0
 431 780 548 662 548 518 c 2
210 922 m 0x2c
 251 922 284 889 284 848 c 0
 284 808 251 775 210 775 c 0
 169 775 136 808 136 848 c 0
 136 889 169 922 210 922 c 0x2c
362 922 m 0
 403 922 436 889 436 848 c 0
 436 808 403 775 362 775 c 0
 321 775 288 808 288 848 c 0
 288 889 321 922 362 922 c 0
EndSplineSet
EndChar
StartChar: divide
Encoding: 247 247 25
Width: 549
Flags: MW
HStem: 0 21G<250.5 302> 164 187<78 211 104 211 104 215 338 338 338 445> 495 20G<246.5 298>
VStem: 179 187<407 447>
LayerCount: 2
Back
Fore
SplineSet
370 93 m 0
 370 41 328 0 276 0 c 0
 225 0 183 41 183 93 c 0
 183 121 195 146 215 164 c 1
 104 164 l 2
 52 164 10 206 10 257 c 0
 10 309 52 351 104 351 c 2
 211 351 l 1
 191 368 179 393 179 421 c 0
 179 473 221 515 272 515 c 0
 324 515 366 473 366 421 c 0
 366 393 354 368 334 351 c 1
 445 351 l 2
 497 351 539 309 539 257 c 0
 539 206 497 164 445 164 c 2
 338 164 l 1
 357 146 370 121 370 93 c 0
EndSplineSet
EndChar
StartChar: oslash
Encoding: 248 248 110
Width: 634
Flags: MW
HStem: -18 187<310.5 337.5 310.5 389> -6 21G<84 108> 593 187<296.5 324>
VStem: 55 187<434 518 434 518 434 590> 392 187<244 322 322 322>
LayerCount: 2
Back
Fore
SplineSet
597 743 m 0x78
 638 712 645 653 614 612 c 2
 575 561 l 1
 578 547 579 533 579 518 c 2
 579 244 l 2
 579 99 461 -18 317 -18 c 0xb8
 261 -18 210 -1 167 29 c 1
 149 6 122 -6 94 -6 c 0
 74 -6 54 0 37 13 c 0
 -4 44 -12 103 20 144 c 2
 59 196 l 1
 56 211 55 227 55 244 c 2
 55 518 l 2
 55 662 172 780 317 780 c 0
 374 780 427 762 470 731 c 1
 502 767 557 773 597 743 c 0x78
242 518 m 2
 242 434 l 1
 356 582 l 1
 344 589 331 593 317 593 c 0
 276 593 242 559 242 518 c 2
392 244 m 2
 392 322 l 1
 281 178 l 1
 292 172 304 169 317 169 c 0
 358 169 392 202 392 244 c 2
EndSplineSet
EndChar
StartChar: uacute
Encoding: 250 250 128
Width: 580
Flags: MW
HStem: -18 187<269.5 310.5 269.5 362> 742 20G<95.5 147 433 484.5>
VStem: 28 187<244 669> 365 187<244 669>
LayerCount: 2
Back
Fore
SplineSet
28 669 m 2
 28 721 70 762 121 762 c 0
 173 762 215 721 215 669 c 1
 215 669 l 1
 215 244 l 2
 215 203 249 169 290 169 c 0
 331 169 365 203 365 244 c 2
 365 669 l 1
 365 669 l 1
 365 721 407 762 459 762 c 0
 510 762 552 721 552 669 c 1
 552 669 l 1
 552 244 l 2
 552 100 434 -18 290 -18 c 0
 145 -18 28 100 28 244 c 2
 28 669 l 2
441 938 m 2
 471 960 514 953 536 923 c 0
 558 892 551 850 520 828 c 2
 434 766 l 2
 404 744 361 751 339 781 c 0
 317 812 324 854 355 876 c 1
 355 876 l 1
 441 938 l 2
EndSplineSet
EndChar
StartChar: ucircumflex
Encoding: 251 251 129
Width: 580
Flags: MW
HStem: -18 187<269.5 310.5 269.5 362> 742 20G<95.5 147 433 484.5>
VStem: 28 187<244 669> 365 187<244 669>
LayerCount: 2
Back
Fore
SplineSet
28 669 m 2
 28 721 70 762 121 762 c 0
 173 762 215 721 215 669 c 1
 215 669 l 1
 215 244 l 2
 215 203 249 169 290 169 c 0
 331 169 365 203 365 244 c 2
 365 669 l 1
 365 669 l 1
 365 721 407 762 459 762 c 0
 510 762 552 721 552 669 c 1
 552 669 l 1
 552 244 l 2
 552 100 434 -18 290 -18 c 0
 145 -18 28 100 28 244 c 2
 28 669 l 2
416 867 m 2
 446 845 453 803 431 772 c 0
 409 742 367 735 336 757 c 2
 290 790 l 1
 243 757 l 2
 213 735 170 742 148 772 c 0
 127 803 133 845 164 867 c 2
 250 929 l 2
 274 946 306 946 330 929 c 2
 416 867 l 2
EndSplineSet
EndChar
StartChar: udieresis
Encoding: 252 252 130
Width: 580
Flags: MW
HStem: -18 187<269.5 310.5 269.5 362> 740 147<193.5 234.5 345.5 386.5> 742 20G<95.5 147 433 484.5>
VStem: 28 187<244 669> 140 148<793 833.5> 292 148<793 833.5> 365 187<244 669>
LayerCount: 2
Back
Fore
SplineSet
28 669 m 2xb2
 28 721 70 762 121 762 c 0
 173 762 215 721 215 669 c 1
 215 669 l 1
 215 244 l 2
 215 203 249 169 290 169 c 0
 331 169 365 203 365 244 c 2
 365 669 l 1
 365 669 l 1
 365 721 407 762 459 762 c 0
 510 762 552 721 552 669 c 1
 552 669 l 1
 552 244 l 2
 552 100 434 -18 290 -18 c 0
 145 -18 28 100 28 244 c 2
 28 669 l 2xb2
214 887 m 0x4c
 255 887 288 854 288 813 c 0
 288 773 255 740 214 740 c 0
 173 740 140 773 140 813 c 0
 140 854 173 887 214 887 c 0x4c
366 887 m 0
 407 887 440 854 440 813 c 0
 440 773 407 740 366 740 c 0
 325 740 292 773 292 813 c 0
 292 854 325 887 366 887 c 0
EndSplineSet
EndChar
StartChar: dotlessi
Encoding: 305 305 84
Width: 247
Flags: MW
HStem: 0 21G<97 149> 552 20G<97 149>
VStem: 30 187<93 478>
LayerCount: 2
Back
Fore
SplineSet
123 572 m 0
 175 572 217 530 217 478 c 2
 217 93 l 2
 217 42 175 0 123 0 c 0
 71 0 30 42 30 93 c 2
 30 478 l 2
 30 530 71 572 123 572 c 0
EndSplineSet
EndChar
StartChar: Utilde
Encoding: 360 360 126
Width: 636
Flags: MW
HStem: -19 187<289.5 346.5 289.5 398> 742 20G<95 147 489 541>
VStem: 28 187<272 668> 421 187<272 668>
LayerCount: 2
Back
Fore
SplineSet
515 762 m 0
 567 762 608 720 608 668 c 2
 608 272 l 2
 608 111 478 -19 318 -19 c 0
 158 -19 28 111 28 272 c 2
 28 668 l 2
 28 720 69 762 121 762 c 0
 173 762 215 720 215 668 c 2
 215 272 l 2
 215 215 261 168 318 168 c 0
 375 168 421 215 421 272 c 2
 421 668 l 2
 421 720 463 762 515 762 c 0
444 908 m 0
 480 897 501 859 490 823 c 0
 480 790 450 750 398 744 c 0
 354 739 323 755 304 764 c 2
 304 764 300 766 300 766 c 1
 296 768 l 2
 294 769 293 770 291 770 c 0
 275 748 245 737 217 746 c 0
 181 757 161 795 172 831 c 0
 181 863 211 903 263 910 c 0
 307 915 339 899 357 890 c 2
 357 890 361 888 361 888 c 1
 366 885 l 2
 367 885 369 884 370 883 c 1
 387 905 416 916 444 908 c 0
EndSplineSet
EndChar
StartChar: utilde
Encoding: 361 361 132
Width: 580
Flags: MW
HStem: -18 187<269.5 310.5 269.5 362> 742 20G<95.5 147 433 484.5>
VStem: 28 187<244 669> 365 187<244 669>
LayerCount: 2
Back
Fore
SplineSet
28 669 m 2
 28 721 70 762 121 762 c 0
 173 762 215 721 215 669 c 1
 215 669 l 1
 215 244 l 2
 215 203 249 169 290 169 c 0
 331 169 365 203 365 244 c 2
 365 669 l 1
 365 669 l 1
 365 721 407 762 459 762 c 0
 510 762 552 721 552 669 c 1
 552 669 l 1
 552 244 l 2
 552 100 434 -18 290 -18 c 0
 145 -18 28 100 28 244 c 2
 28 669 l 2
418 905 m 0
 454 894 475 856 464 820 c 0
 454 787 424 747 372 741 c 0
 328 736 297 752 278 761 c 2
 278 761 274 763 274 763 c 1
 270 765 l 2
 268 766 267 767 265 767 c 0
 249 745 219 734 191 743 c 0
 155 754 135 792 146 828 c 0
 155 860 185 900 237 907 c 0
 281 912 313 896 331 887 c 2
 331 887 335 885 335 885 c 1
 340 882 l 2
 341 882 343 881 344 880 c 1
 361 902 390 913 418 905 c 0
EndSplineSet
EndChar
StartChar: circumflex
Encoding: 710 710 175
Width: 349
Flags: W
LayerCount: 2
Back
Fore
SplineSet
301 891 m 2
 331 869 338 827 316 796 c 0
 294 766 252 759 221 781 c 2
 175 814 l 1
 128 781 l 2
 98 759 55 766 33 796 c 0
 12 827 18 869 49 891 c 2
 135 953 l 2
 159 970 191 970 215 953 c 2
 301 891 l 2
EndSplineSet
EndChar
StartChar: tilde
Encoding: 732 732 177
Width: 365
Flags: W
LayerCount: 2
Back
Fore
SplineSet
296 931 m 0
 332 920 353 882 342 846 c 0
 332 813 302 773 250 767 c 0
 206 762 175 778 156 787 c 2
 156 787 152 789 152 789 c 1
 148 791 l 2
 146 792 145 793 143 793 c 0
 127 771 97 760 69 769 c 0
 33 780 13 818 24 854 c 0
 33 886 63 926 115 933 c 0
 159 938 191 922 209 913 c 2
 209 913 213 911 213 911 c 1
 218 908 l 2
 219 908 221 907 222 906 c 1
 239 928 268 939 296 931 c 0
EndSplineSet
EndChar
StartChar: endash
Encoding: 8211 8211 152
Width: 580
Flags: MW
HStem: 319 187<67.5 93 93 487>
LayerCount: 2
Back
Fore
SplineSet
93 319 m 2
 42 319 0 361 0 413 c 0
 0 464 42 506 93 506 c 1
 93 506 l 1
 487 506 l 1
 487 506 l 1
 538 506 580 464 580 413 c 0
 580 361 538 319 487 319 c 1
 487 319 l 1
 93 319 l 2
EndSplineSet
EndChar
StartChar: emdash
Encoding: 8212 8212 153
Width: 749
Flags: MW
HStem: 319 187<67.5 93 93 656>
LayerCount: 2
Back
Fore
SplineSet
93 319 m 2
 42 319 0 361 0 413 c 0
 0 464 42 506 93 506 c 1
 93 506 l 1
 656 506 l 1
 656 506 l 1
 707 506 749 464 749 413 c 0
 749 361 707 319 656 319 c 1
 656 319 l 1
 93 319 l 2
EndSplineSet
EndChar
StartChar: quoteleft
Encoding: 8216 8216 148
Width: 227
Flags: MW
HStem: 744 20G<88 139.5>
VStem: 20 187<662 696.5>
LayerCount: 2
Back
Fore
SplineSet
85 535 m 1
 34 621 l 2
 25 636 20 653 20 671 c 0
 20 722 62 764 114 764 c 0
 165 764 207 722 207 671 c 0
 207 643 196 619 177 602 c 1
 183 592 l 2
 198 565 189 530 162 514 c 0
 135 499 100 508 85 535 c 1
 85 535 l 1
EndSplineSet
EndChar
StartChar: quoteright
Encoding: 8217 8217 149
Width: 227
Flags: MW
HStem: 744 20G<87.5 139>
VStem: 20 187<662 696.5 662 696.5>
LayerCount: 2
Back
Fore
SplineSet
193 621 m 2
 142 535 l 1
 142 535 l 1
 127 508 92 499 65 514 c 0
 38 530 29 565 44 592 c 2
 50 602 l 1
 31 619 20 643 20 671 c 0
 20 722 62 764 113 764 c 0
 165 764 207 722 207 671 c 0
 207 653 202 636 193 621 c 2
EndSplineSet
EndChar
StartChar: quotedblleft
Encoding: 8220 8220 150
Width: 418
Flags: MW
HStem: 499 21G<88 139.5 279 330.5>
VStem: 20 187<566.5 601> 211 187<566.5 601>
LayerCount: 2
Back
Fore
SplineSet
34 642 m 2
 85 728 l 1
 85 728 l 1
 100 755 135 764 162 749 c 0
 189 733 198 698 183 671 c 2
 177 661 l 1
 196 644 207 620 207 592 c 0
 207 541 165 499 114 499 c 0
 62 499 20 541 20 592 c 0
 20 610 25 627 34 642 c 2
225 642 m 2
 276 728 l 1
 276 728 l 1
 291 755 326 764 353 749 c 0
 380 733 389 698 374 671 c 2
 368 661 l 1
 387 644 398 620 398 592 c 0
 398 541 356 499 305 499 c 0
 253 499 211 541 211 592 c 0
 211 610 216 627 225 642 c 2
EndSplineSet
EndChar
StartChar: quotedblright
Encoding: 8221 8221 151
Width: 418
Flags: MW
HStem: 744 20G<87.5 139 278.5 330>
VStem: 20 187<662 696.5 662 696.5> 211 187<662 696.5 662 696.5>
LayerCount: 2
Back
Fore
SplineSet
384 621 m 2
 333 535 l 1
 333 535 l 1
 318 508 283 499 256 514 c 0
 229 530 220 565 235 592 c 2
 241 602 l 1
 222 619 211 643 211 671 c 0
 211 722 253 764 304 764 c 0
 356 764 398 722 398 671 c 0
 398 653 393 636 384 621 c 2
193 621 m 2
 142 535 l 1
 142 535 l 1
 127 508 92 499 65 514 c 0
 38 530 29 565 44 592 c 2
 50 602 l 1
 31 619 20 643 20 671 c 0
 20 722 62 764 113 764 c 0
 165 764 207 722 207 671 c 0
 207 653 202 636 193 621 c 2
EndSplineSet
EndChar
StartChar: bullet
Encoding: 8226 8226 164
Width: 570
Flags: MW
HStem: 171 21G<152.5 268> 571 20G<152.5 268>
LayerCount: 2
Back
Fore
SplineSet
210 591 m 0
 326 591 420 496 420 381 c 0
 420 265 326 171 210 171 c 0
 95 171 0 265 0 381 c 0
 0 496 95 591 210 591 c 0
EndSplineSet
EndChar
StartChar: uni20ac
Encoding: 8364 8364 143
Width: 836
Flags: MW
HStem: -18 187<461 516.5 461 546.5> 202 170<85 469 369 369 369 469> 394 170<374 534 85 270> 593 188<462 516.5>
LayerCount: 2
Back
Fore
SplineSet
785 282 m 0
 828 252 838 194 808 151 c 0
 733 46 611 -18 482 -18 c 0
 326 -18 191 72 125 202 c 1
 85 202 l 2
 38 202 0 240 0 287 c 0
 0 333 37 371 83 372 c 1
 83 379 83 388 83 394 c 1
 37 395 0 432 0 479 c 0
 0 526 38 564 85 564 c 2
 127 564 l 1
 193 692 327 781 482 781 c 0
 611 781 733 717 808 612 c 0
 838 569 828 511 785 481 c 0
 743 451 685 461 655 504 c 0
 615 560 551 593 482 593 c 0
 442 593 405 583 374 564 c 1
 534 564 l 2
 581 564 619 526 619 479 c 0
 619 432 581 394 534 394 c 2
 270 394 l 1
 270 388 270 379 270 372 c 1
 469 372 l 2
 516 372 554 334 554 287 c 0
 554 240 516 202 469 202 c 2
 369 202 l 1
 402 181 440 169 482 169 c 0
 551 169 615 203 655 259 c 0
 685 302 743 312 785 282 c 0
EndSplineSet
EndChar
StartChar: trademark
Encoding: 8482 8482 170
Width: 1264
Flags: MW
HStem: 276 21G<265.5 317 654 705.5 1144.5 1196> 575 188<68 489 94 198 385 489 385 385>
VStem: 198 187<370 575> 586 187<370 468 344 669> 1077 187<370 468 468 468>
LayerCount: 2
Back
Fore
SplineSet
489 763 m 2
 540 763 582 721 582 669 c 0
 582 617 540 575 489 575 c 2
 385 575 l 1
 385 370 l 2
 385 318 343 276 291 276 c 0
 240 276 198 318 198 370 c 2
 198 575 l 1
 94 575 l 2
 42 575 0 617 0 669 c 0
 0 721 42 763 94 763 c 2
 489 763 l 2
1210 754 m 0
 1243 738 1264 705 1264 669 c 2
 1264 370 l 2
 1264 318 1222 276 1170 276 c 0
 1119 276 1077 318 1077 370 c 2
 1077 468 l 1
 985 391 l 2
 950 362 900 362 865 391 c 2
 773 468 l 1
 773 370 l 2
 773 318 731 276 680 276 c 0
 628 276 586 318 586 370 c 2
 586 669 l 2
 586 705 607 738 640 754 c 0
 673 769 712 764 740 741 c 2
 925 585 l 1
 1110 741 l 2
 1138 764 1177 769 1210 754 c 0
EndSplineSet
EndChar
StartChar: uni2195
Encoding: 8597 8597 180
Width: 745
Flags: MW
HStem: 0 21G<286.5 308>
VStem: 212 171<281 482 281 482>
LayerCount: 2
Back
Fore
SplineSet
457 355 m 2
 488 387 540 387 571 355 c 0
 603 323 603 272 571 241 c 2
 355 24 l 2
 339 9 319 0 297 0 c 0
 276 0 255 9 240 24 c 2
 24 241 l 2
 -8 272 -8 323 24 355 c 0
 55 387 106 387 138 355 c 2
 212 281 l 1
 212 482 l 1
 138 408 l 2
 106 376 55 376 24 408 c 0
 -8 440 -8 491 24 522 c 2
 240 739 l 2
 272 771 323 771 355 739 c 2
 571 522 l 2
 603 491 603 440 571 408 c 0
 539 376 488 376 457 408 c 2
 383 482 l 1
 383 281 l 1
 457 355 l 2
EndSplineSet
EndChar
StartChar: minus
Encoding: 8722 8722 23
Width: 469
Flags: MW
HStem: 164 187<78 104 104 366 104 104>
LayerCount: 2
Back
Fore
SplineSet
366 351 m 2
 417 351 459 309 459 257 c 0
 459 206 417 164 366 164 c 1
 366 164 l 1
 104 164 l 1
 104 164 l 1
 52 164 10 206 10 257 c 0
 10 309 52 351 104 351 c 1
 104 351 l 1
 366 351 l 2
EndSplineSet
EndChar
StartChar: notequal
Encoding: 8800 8800 27
Width: 591
Flags: MW
HStem: 54 187<391 487 103 302> 264 187<77.5 283 103 194 103 401 103 487>
LayerCount: 2
Back
Fore
SplineSet
487 241 m 2
 539 241 581 199 581 147 c 0
 581 96 539 54 487 54 c 2
 302 54 l 1
 266 -22 l 2
 244 -69 188 -89 141 -67 c 0
 96 -45 76 8 95 54 c 1
 47 58 10 98 10 147 c 0
 10 199 52 241 103 241 c 2
 184 241 l 1
 194 264 l 1
 103 264 l 2
 52 264 10 305 10 357 c 0
 10 409 52 451 103 451 c 2
 283 451 l 1
 324 538 l 2
 347 585 402 605 449 583 c 0
 496 561 516 505 494 458 c 1
 490 451 l 1
 540 449 581 408 581 357 c 0
 581 305 539 264 487 264 c 2
 401 264 l 1
 391 241 l 1
 487 241 l 2
EndSplineSet
EndChar
StartChar: uni2602
Encoding: 9730 9730 181
Width: 673
Flags: MW
HStem: 4 21<380 404.5 380 410.5> 487 210<196 326 326 477.5> 739 20G<333 339>
VStem: 136 211<431 448.5> 263 84<431 448.5> 326 21<70 486 697 747> 437 22<57.5 75> 515 148<431 448.5> 641 22<431 448.5>
LayerCount: 2
Back
Fore
SplineSet
592 593 m 0xf3
 638 547 663 492 663 434 c 0
 663 428 659 423 652 423 c 0
 646 423 641 428 641 434 c 0xf280
 641 463 618 487 589 487 c 0
 560 487 536 463 536 434 c 0
 536 428 531 423 526 423 c 0
 520 423 515 428 515 434 c 0
 515 463 492 487 463 487 c 0
 433 487 410 463 410 434 c 0
 410 428 405 423 400 423 c 0
 394 423 389 428 389 434 c 0
 389 460 371 481 347 486 c 1
 347 70 l 2
 347 45 368 25 392 25 c 0
 417 25 437 45 437 70 c 0
 437 80 434 89 429 96 c 0
 425 101 426 108 431 111 c 0
 436 114 442 113 446 109 c 0
 454 97 459 84 459 70 c 0
 459 33 429 4 392 4 c 0
 356 4 326 33 326 70 c 2
 326 486 l 1xe7
 302 481 284 460 284 434 c 0
 284 428 280 423 274 423 c 0
 268 423 263 428 263 434 c 0xeb
 263 463 239 487 210 487 c 0
 182 487 158 463 158 434 c 0
 158 428 154 423 147 423 c 0
 141 423 136 428 136 434 c 0xf3
 136 463 113 487 84 487 c 0
 56 487 32 463 32 434 c 0
 32 428 27 423 21 423 c 0
 15 423 10 428 10 434 c 0
 10 493 35 548 81 594 c 0
 142 655 235 694 326 697 c 1
 326 747 l 2xe7
 326 753 330 759 336 759 c 0
 342 759 347 753 347 747 c 2
 347 697 l 1
 437 694 530 654 592 593 c 0xf3
EndSplineSet
EndChar
StartChar: uni2614
Encoding: 9748 9748 185
Width: 1179
Flags: MW
HStem: -525 32<655 691.5 655 700.5> 98 124<117.5 223.5 219 314 867.5 876> 192 30<219 223.5 219 237.5 756.5 769 769 771 943.5 959 959 961.5> 238 23 238 90<402 508 402 526> 269 27<306 313.5 306 323 296 313.5> 309 61<427.5 519 501.5 508 508 519 486 524 486 552 486 569> 348 22 396 28<413 415.5 407.5 416 407.5 439> 444 31 444 60 444 152<492.5 595.5 586.5 688> 517 22<108 114 172 178 236 242 300 306 364 370 428 434 491 497 683 689 747 753 809 815 873 879 937 943 1001 1007 1065 1071> 581 149<140 146 204 210 268 274 332 338 396 402 460 466 523 529 651 657 715 721 779 785 841 847 905 911 969 975 1033 1039> 645 22<108 114 172 178 236 242 300 306 364 370 428 434 491 497 555 561 619 625 683 689 747 753 809 815 873 879 937 943 1001 1007 1065 1071> 708 22<140 146 204 210 268 274 332 338 396 402 460 466 523 529 587 593 651 657 715 721 779 785 841 847 905 911 969 975 1033 1039> 772 22<108 114 172 178 236 242 300 306 364 370 428 434 491 497 555 561 619 625 683 689 747 753 809 815 873 879 937 943 1001 1007 1065 1071> 836 22<140 146 204 210 268 274 332 338 396 402 460 466 523 529 587 593 651 657 715 721 779 785 841 847 905 911 969 975 1033 1039> 900 22<108 114 172 178 236 242 300 306 364 370 428 434 491 497 555 561 619 625 683 689 747 753 809 815 873 879 937 943 1001 1007 1065 1071>
VStem: 106 32<109.5 135.5 109.5 157.5> 132 22<335 341 461 467 589 595 716 722 844 850> 132 82 164 22<399 405 525 531 653 659 780 786 908 914> 196 85 229 23<230 261 276 301> 268 57 294 31<109.5 135.5> 294 81 324 27 324 81<383 467> 338 84<230 282 282 290> 366 56<249 282 282 286> 396 26 408 58<278 341 281.5 341> 420 22<525 531 653 659 780 786 908 914> 437 29 437 47<239.5 246 246 260 260 260 276 285 239.5 301> 449 64 481 32<109.5 133 109.5 135.5> 481 76 515 29 539 30 559 25<230 242 228 294> 575 32<-427 190 504 580> 597 60<277.5 282 241 288.5> 611 30 625 75 643 89 668 32<109.5 133> 715 57 740 32<-445 -420> 740 84 752 33<341 370 338 370 390 408> 776 77<228 230 230 232> 805 48 839 48 839 79<249 285 239.5 301 239.5 303> 856 31<109.5 135.5> 856 95 907 76 933 82 967 80 993 22<399 405 525 531 653 659 780 786 908 914> 1025 22<335 341 461 467 589 595 716 722 844 850> 1044 31<109.5 135.5>
LayerCount: 2
Back
Fore
SplineSet
111 900 m 0xd6acf32212952453
 105 900 100 905 100 911 c 0
 100 917 105 922 111 922 c 0
 117 922 122 917 122 911 c 0
 122 905 117 900 111 900 c 0xd6acf32212952453
970 351 m 0
 1039 282 1075 200 1075 114 c 0
 1075 105 1068 98 1060 98 c 0xc9ccf31084a8c45280
 1051 98 1044 105 1044 114 c 0
 1044 157 1008 192 965 192 c 0xb6ccf32212a8c45280
 922 192 887 157 887 114 c 0
 887 105 880 98 872 98 c 0xd6ccf32212a8c113
 863 98 856 105 856 114 c 0
 856 157 821 192 778 192 c 0xb6ccf32212a8c453
 735 192 700 157 700 114 c 0
 700 105 693 98 684 98 c 0
 675 98 668 105 668 114 c 0
 668 152 642 183 607 190 c 1
 607 -427 l 2
 607 -463 637 -493 673 -493 c 0
 710 -493 740 -463 740 -427 c 0
 740 -413 736 -399 728 -388 c 0
 722 -381 724 -371 731 -366 c 0
 738 -360 748 -362 753 -369 c 0
 765 -386 772 -406 772 -427 c 0
 772 -481 728 -525 673 -525 c 0
 619 -525 575 -481 575 -427 c 2
 575 190 l 1
 539 183 513 152 513 114 c 0
 513 105 506 98 497 98 c 0xd6ccf3220494a453
 488 98 481 105 481 114 c 0
 481 157 446 192 403 192 c 0xb6ccf32212a8c453
 360 192 325 157 325 114 c 0
 325 105 318 98 310 98 c 0xd6ccf2c212a8c453
 301 98 294 105 294 114 c 0
 294 157 259 192 216 192 c 0xb6ccf32212a8c453
 173 192 138 157 138 114 c 0
 138 105 131 98 122 98 c 0
 113 98 106 105 106 114 c 0
 106 201 143 283 211 352 c 0
 302 443 440 500 575 504 c 1xd6acf32212952453
 575 580 l 2
 575 589 582 596 591 596 c 0xd693f32212952453
 600 596 607 589 607 580 c 2
 607 504 l 1
 741 500 879 442 970 351 c 0
449 365 m 2
 449 386 l 2
 449 392 444 396 439 396 c 2
 416 396 l 2
 410 396 405 392 405 386 c 0xd6ccf30424552453
 405 380 410 376 416 376 c 2
 428 376 l 1
 428 365 l 2
 428 356 421 348 412 348 c 0
 403 348 396 356 396 365 c 2
 396 408 l 2
 396 417 403 424 412 424 c 0
 419 424 425 419 428 413 c 0
 429 408 435 405 441 406 c 0
 446 408 449 414 447 419 c 0
 442 434 428 444 412 444 c 0
 392 444 375 428 375 408 c 2
 375 365 l 2
 375 344 392 328 412 328 c 0
 432 328 449 344 449 365 c 2
503 444 m 0
 482 444 466 428 466 408 c 2
 466 341 l 2xd6ccf32042a50a53
 466 335 471 331 476 331 c 0
 482 331 486 335 486 341 c 2
 486 370 l 1
 519 370 l 1
 519 341 l 2
 519 335 523 331 529 331 c 0
 535 331 539 335 539 341 c 2
 539 408 l 2
 539 428 523 444 503 444 c 0
519 390 m 1
 486 390 l 1
 486 408 l 2
 486 417 494 424 503 424 c 0
 512 424 519 417 519 408 c 2
 519 390 l 1
742 331 m 0
 748 331 752 335 752 341 c 2
 752 370 l 1
 785 370 l 1
 785 341 l 2
 785 335 789 331 795 331 c 0
 801 331 805 335 805 341 c 2
 805 408 l 2
 805 428 789 444 769 444 c 0
 748 444 732 428 732 408 c 2
 732 341 l 2
 732 335 737 331 742 331 c 0
769 424 m 0
 778 424 785 417 785 408 c 2
 785 390 l 1
 752 390 l 1
 752 408 l 2
 752 417 760 424 769 424 c 0
678 444 m 0
 658 444 641 428 641 408 c 2
 641 365 l 2
 641 344 658 328 678 328 c 0
 698 328 715 344 715 365 c 2
 715 408 l 2xc9ccf3221124c453
 715 428 698 444 678 444 c 0
694 408 m 2
 694 365 l 2
 694 356 687 348 678 348 c 0
 669 348 662 356 662 365 c 2
 662 408 l 2
 662 417 669 424 678 424 c 0
 687 424 694 417 694 408 c 2
617 382 m 1
 622 388 625 397 625 406 c 0xd6cce4c212a24453
 625 425 609 441 589 441 c 2
 567 441 l 2
 561 441 557 437 557 431 c 2
 557 341 l 2
 557 335 561 331 567 331 c 0
 572 331 577 335 577 341 c 2
 577 421 l 1
 589 421 l 2
 598 421 605 414 605 406 c 0
 605 398 600 392 593 391 c 0
 588 390 584 387 584 380 c 0
 584 373 589 370 594 370 c 0
 602 370 608 363 608 356 c 2
 608 341 l 2
 608 335 612 331 618 331 c 0
 624 331 628 335 628 341 c 2
 628 356 l 2
 628 366 624 376 617 382 c 1
260 309 m 0
 256 309 252 305 252 301 c 2
 252 276 l 1
 229 276 l 1
 229 301 l 2
 229 305 226 309 221 309 c 0
 217 309 214 305 214 301 c 2
 214 230 l 2
 214 226 217 222 221 222 c 0
 226 222 229 226 229 230 c 2
 229 261 l 1
 252 261 l 1
 252 230 l 2
 252 226 256 222 260 222 c 0
 264 222 268 226 268 230 c 2
 268 301 l 2
 268 305 264 309 260 309 c 0
769 238 m 2
 742 238 l 1
 742 301 l 2
 742 305 739 309 735 309 c 0
 730 309 727 305 727 301 c 2
 727 230 l 2
 727 226 730 222 735 222 c 2
 769 222 l 2
 773 222 776 226 776 230 c 0
 776 234 773 238 769 238 c 2
705 272 m 0
 709 271 713 274 714 278 c 0
 714 280 714 281 714 282 c 0
 714 298 701 311 686 311 c 0
 670 311 657 298 657 282 c 2
 657 249 l 2xd6ccf32208a89104
 657 233 670 220 686 220 c 0
 701 220 714 233 714 249 c 0
 714 250 714 252 714 253 c 0
 713 257 709 260 705 260 c 0
 701 259 698 255 699 251 c 0
 699 250 699 249 699 249 c 2
 699 241 693 235 686 235 c 0
 678 235 672 241 672 249 c 2
 672 282 l 2
 672 290 678 296 686 296 c 0
 693 296 699 290 699 282 c 2
 699 282 699 281 699 280 c 0
 698 276 701 272 705 272 c 0
831 309 m 0
 827 309 824 305 824 301 c 2
 824 249 l 2
 824 241 818 235 811 235 c 0
 803 235 797 241 797 249 c 2
 797 301 l 2
 797 305 794 309 790 309 c 0
 785 309 782 305 782 301 c 2
 782 249 l 2
 782 233 795 220 811 220 c 0
 826 220 839 233 839 249 c 2
 839 301 l 2
 839 305 836 309 831 309 c 0
310 311 m 0
 294 311 281 298 281 282 c 2
 281 230 l 2
 281 226 284 222 289 222 c 0
 293 222 296 226 296 230 c 2
 296 253 l 1
 323 253 l 1
 323 230 l 2
 323 226 326 222 330 222 c 0
 335 222 338 226 338 230 c 2
 338 282 l 2
 338 298 325 311 310 311 c 0
323 269 m 1
 296 269 l 1
 296 282 l 2
 296 290 302 296 310 296 c 0
 317 296 323 290 323 282 c 2
 323 269 l 1
526 238 m 2
 508 238 l 2
 503 238 500 241 500 246 c 2
 500 262 l 1
 520 262 l 2
 524 262 528 265 528 269 c 0
 528 274 524 277 520 277 c 2
 500 277 l 1
 500 285 l 2
 500 290 503 294 508 294 c 2
 524 294 l 2
 528 294 532 297 532 301 c 0
 532 305 528 309 524 309 c 2
 508 309 l 2
 495 309 484 298 484 285 c 2
 484 246 l 2
 484 233 495 222 508 222 c 2
 526 222 l 2
 530 222 534 226 534 230 c 0
 534 234 530 238 526 238 c 2
959 238 m 2
 941 238 l 2
 937 238 933 241 933 246 c 2
 933 262 l 1
 953 262 l 2
 958 262 961 265 961 269 c 0
 961 274 958 277 953 277 c 2
 933 277 l 1
 933 285 l 2
 933 290 937 294 941 294 c 2
 957 294 l 2
 962 294 965 297 965 301 c 0
 965 305 962 309 957 309 c 2
 941 309 l 2
 928 309 918 298 918 285 c 2
 918 246 l 2xd6ccf32212a8c089
 918 233 928 222 941 222 c 2
 959 222 l 2
 964 222 967 226 967 230 c 0
 967 234 964 238 959 238 c 2
454 274 m 1
 471 297 l 2
 473 300 472 305 469 307 c 0
 466 310 461 309 458 306 c 2
 437 276 l 1
 437 301 l 2
 437 305 434 309 430 309 c 0
 425 309 422 305 422 301 c 2
 422 230 l 2
 422 226 425 222 430 222 c 0
 434 222 437 226 437 230 c 2
 437 260 l 1
 445 260 l 2
 453 260 459 254 459 246 c 2
 459 230 l 2
 459 226 462 222 466 222 c 0
 470 222 474 226 474 230 c 2
 474 246 l 2
 474 259 466 270 454 274 c 1
895 272 m 0
 897 275 898 279 898 283 c 0
 898 297 887 309 872 309 c 2
 861 309 l 2
 857 309 853 305 853 301 c 2
 853 230 l 2
 853 226 857 222 861 222 c 2
 880 222 l 2
 895 222 907 234 907 249 c 0xd6ccf32212a8c453
 907 259 902 267 895 272 c 0
880 238 m 2
 868 238 l 1
 868 294 l 1
 872 294 l 2
 878 294 883 289 883 283 c 0
 883 280 881 277 878 275 c 0
 876 273 874 270 875 267 c 0
 876 264 878 261 882 261 c 0
 887 260 892 255 892 249 c 0
 892 243 887 238 880 238 c 2
592 222 m 0
 596 222 599 226 599 230 c 2
 599 242 l 2
 599 250 596 257 590 262 c 1
 594 267 597 274 597 281 c 0
 597 296 584 309 569 309 c 2xd6ccf3211248c453
 552 309 l 2
 548 309 544 305 544 301 c 2
 544 230 l 2
 544 226 548 222 552 222 c 0
 556 222 559 226 559 230 c 2
 559 294 l 1xd6ccf32212a8c453
 569 294 l 2xd6ccf32212552453
 576 294 582 288 582 281 c 0
 582 275 578 269 572 269 c 0
 569 269 565 266 565 261 c 0
 565 257 569 254 573 254 c 0
 579 254 584 248 584 242 c 2
 584 230 l 2
 584 226 587 222 592 222 c 0
164 911 m 0
 164 917 169 922 175 922 c 0
 181 922 186 917 186 911 c 0
 186 905 181 900 175 900 c 0
 169 900 164 905 164 911 c 0
399 272 m 0
 403 271 407 274 408 278 c 0
 408 280 408 281 408 282 c 0
 408 298 395 311 380 311 c 0
 364 311 351 298 351 282 c 2
 351 249 l 2
 351 233 364 220 380 220 c 0
 395 220 408 233 408 249 c 0
 408 250 408 252 408 253 c 0xd6ccf30842a8c453
 407 257 403 260 399 260 c 0
 395 259 392 255 393 251 c 0
 393 250 393 249 393 249 c 2
 393 241 387 235 380 235 c 0
 372 235 366 241 366 249 c 2
 366 282 l 2
 366 290 372 296 380 296 c 0
 387 296 393 290 393 282 c 2
 393 282 393 281 393 280 c 0
 392 276 395 272 399 272 c 0
239 900 m 0
 233 900 228 905 228 911 c 0
 228 917 233 922 239 922 c 0
 245 922 250 917 250 911 c 0
 250 905 245 900 239 900 c 0
303 900 m 0
 297 900 292 905 292 911 c 0
 292 917 297 922 303 922 c 0
 309 922 314 917 314 911 c 0
 314 905 309 900 303 900 c 0
356 911 m 0
 356 917 361 922 367 922 c 0
 373 922 378 917 378 911 c 0
 378 905 373 900 367 900 c 0
 361 900 356 905 356 911 c 0
431 900 m 0
 425 900 420 905 420 911 c 0
 420 917 425 922 431 922 c 0
 437 922 442 917 442 911 c 0xd6ccf32024552113
 442 905 437 900 431 900 c 0
494 900 m 0
 488 900 483 905 483 911 c 0
 483 917 488 922 494 922 c 0
 500 922 505 917 505 911 c 0
 505 905 500 900 494 900 c 0
547 911 m 0
 547 917 552 922 558 922 c 0
 564 922 569 917 569 911 c 0
 569 905 564 900 558 900 c 0
 552 900 547 905 547 911 c 0
622 900 m 0
 616 900 611 905 611 911 c 0
 611 917 616 922 622 922 c 0
 628 922 633 917 633 911 c 0
 633 905 628 900 622 900 c 0
686 900 m 0
 680 900 675 905 675 911 c 0
 675 917 680 922 686 922 c 0
 692 922 697 917 697 911 c 0
 697 905 692 900 686 900 c 0
739 911 m 0
 739 917 744 922 750 922 c 0
 756 922 761 917 761 911 c 0
 761 905 756 900 750 900 c 0
 744 900 739 905 739 911 c 0
812 900 m 0
 806 900 801 905 801 911 c 0
 801 917 806 922 812 922 c 0
 818 922 823 917 823 911 c 0
 823 905 818 900 812 900 c 0
865 911 m 0
 865 917 870 922 876 922 c 0
 882 922 887 917 887 911 c 0
 887 905 882 900 876 900 c 0
 870 900 865 905 865 911 c 0
940 900 m 0
 934 900 929 905 929 911 c 0
 929 917 934 922 940 922 c 0
 946 922 951 917 951 911 c 0xd6ccf32212a8c424
 951 905 946 900 940 900 c 0
1004 900 m 0
 998 900 993 905 993 911 c 0
 993 917 998 922 1004 922 c 0
 1010 922 1015 917 1015 911 c 0xd6cceb0912a52453
 1015 905 1010 900 1004 900 c 0
1057 911 m 0
 1057 917 1062 922 1068 922 c 0
 1074 922 1079 917 1079 911 c 0
 1079 905 1074 900 1068 900 c 0
 1062 900 1057 905 1057 911 c 0
143 836 m 0
 137 836 132 841 132 847 c 0
 132 853 137 858 143 858 c 0
 149 858 154 853 154 847 c 0
 154 841 149 836 143 836 c 0
196 847 m 0
 196 853 201 858 207 858 c 0
 213 858 218 853 218 847 c 0
 218 841 213 836 207 836 c 0
 201 836 196 841 196 847 c 0
271 836 m 0
 265 836 260 841 260 847 c 0
 260 853 265 858 271 858 c 0
 277 858 282 853 282 847 c 0
 282 841 277 836 271 836 c 0
335 836 m 0
 329 836 324 841 324 847 c 0
 324 853 329 858 335 858 c 0
 341 858 346 853 346 847 c 0
 346 841 341 836 335 836 c 0
388 847 m 0
 388 853 393 858 399 858 c 0
 405 858 410 853 410 847 c 0
 410 841 405 836 399 836 c 0
 393 836 388 841 388 847 c 0
463 836 m 0
 457 836 452 841 452 847 c 0
 452 853 457 858 463 858 c 0
 469 858 474 853 474 847 c 0
 474 841 469 836 463 836 c 0
526 836 m 0
 520 836 515 841 515 847 c 0
 515 853 520 858 526 858 c 0
 532 858 537 853 537 847 c 0
 537 841 532 836 526 836 c 0
579 847 m 0
 579 853 584 858 590 858 c 0
 596 858 601 853 601 847 c 0
 601 841 596 836 590 836 c 0
 584 836 579 841 579 847 c 0
654 836 m 0
 648 836 643 841 643 847 c 0
 643 853 648 858 654 858 c 0
 660 858 665 853 665 847 c 0
 665 841 660 836 654 836 c 0
718 836 m 0
 712 836 707 841 707 847 c 0
 707 853 712 858 718 858 c 0
 724 858 729 853 729 847 c 0
 729 841 724 836 718 836 c 0
771 847 m 0
 771 853 776 858 782 858 c 0
 788 858 793 853 793 847 c 0
 793 841 788 836 782 836 c 0
 776 836 771 841 771 847 c 0
844 836 m 0
 838 836 833 841 833 847 c 0
 833 853 838 858 844 858 c 0
 850 858 855 853 855 847 c 0
 855 841 850 836 844 836 c 0
897 847 m 0
 897 853 902 858 908 858 c 0
 914 858 919 853 919 847 c 0
 919 841 914 836 908 836 c 0
 902 836 897 841 897 847 c 0
972 836 m 0
 966 836 961 841 961 847 c 0
 961 853 966 858 972 858 c 0
 978 858 983 853 983 847 c 0
 983 841 978 836 972 836 c 0
1036 836 m 0
 1030 836 1025 841 1025 847 c 0
 1025 853 1030 858 1036 858 c 0
 1042 858 1047 853 1047 847 c 0xd6ccf32024552113
 1047 841 1042 836 1036 836 c 0
111 772 m 0
 105 772 100 777 100 783 c 0
 100 789 105 794 111 794 c 0
 117 794 122 789 122 783 c 0
 122 777 117 772 111 772 c 0
164 783 m 0
 164 789 169 794 175 794 c 0
 181 794 186 789 186 783 c 0
 186 777 181 772 175 772 c 0
 169 772 164 777 164 783 c 0
239 772 m 0
 233 772 228 777 228 783 c 0
 228 789 233 794 239 794 c 0
 245 794 250 789 250 783 c 0
 250 777 245 772 239 772 c 0
303 772 m 0
 297 772 292 777 292 783 c 0
 292 789 297 794 303 794 c 0
 309 794 314 789 314 783 c 0
 314 777 309 772 303 772 c 0
356 783 m 0
 356 789 361 794 367 794 c 0
 373 794 378 789 378 783 c 0
 378 777 373 772 367 772 c 0
 361 772 356 777 356 783 c 0
431 772 m 0
 425 772 420 777 420 783 c 0
 420 789 425 794 431 794 c 0
 437 794 442 789 442 783 c 0
 442 777 437 772 431 772 c 0
494 772 m 0
 488 772 483 777 483 783 c 0
 483 789 488 794 494 794 c 0
 500 794 505 789 505 783 c 0
 505 777 500 772 494 772 c 0
547 783 m 0
 547 789 552 794 558 794 c 0
 564 794 569 789 569 783 c 0
 569 777 564 772 558 772 c 0
 552 772 547 777 547 783 c 0
622 772 m 0
 616 772 611 777 611 783 c 0
 611 789 616 794 622 794 c 0
 628 794 633 789 633 783 c 0
 633 777 628 772 622 772 c 0
686 772 m 0
 680 772 675 777 675 783 c 0
 675 789 680 794 686 794 c 0
 692 794 697 789 697 783 c 0
 697 777 692 772 686 772 c 0
739 783 m 0
 739 789 744 794 750 794 c 0
 756 794 761 789 761 783 c 0
 761 777 756 772 750 772 c 0
 744 772 739 777 739 783 c 0
812 772 m 0
 806 772 801 777 801 783 c 0
 801 789 806 794 812 794 c 0
 818 794 823 789 823 783 c 0
 823 777 818 772 812 772 c 0
865 783 m 0
 865 789 870 794 876 794 c 0
 882 794 887 789 887 783 c 0
 887 777 882 772 876 772 c 0
 870 772 865 777 865 783 c 0
940 772 m 0
 934 772 929 777 929 783 c 0
 929 789 934 794 940 794 c 0
 946 794 951 789 951 783 c 0xd6ccf32212a8c424
 951 777 946 772 940 772 c 0
1004 772 m 0
 998 772 993 777 993 783 c 0
 993 789 998 794 1004 794 c 0
 1010 794 1015 789 1015 783 c 0xd6cbeb0912a52453
 1015 777 1010 772 1004 772 c 0
1057 783 m 0
 1057 789 1062 794 1068 794 c 0
 1074 794 1079 789 1079 783 c 0
 1079 777 1074 772 1068 772 c 0
 1062 772 1057 777 1057 783 c 0
143 708 m 0
 137 708 132 713 132 719 c 0
 132 725 137 730 143 730 c 0
 149 730 154 725 154 719 c 0
 154 713 149 708 143 708 c 0
196 719 m 0
 196 725 201 730 207 730 c 0
 213 730 218 725 218 719 c 0
 218 713 213 708 207 708 c 0
 201 708 196 713 196 719 c 0
271 708 m 0
 265 708 260 713 260 719 c 0
 260 725 265 730 271 730 c 0
 277 730 282 725 282 719 c 0
 282 713 277 708 271 708 c 0
335 708 m 0
 329 708 324 713 324 719 c 0
 324 725 329 730 335 730 c 0
 341 730 346 725 346 719 c 0
 346 713 341 708 335 708 c 0
388 719 m 0
 388 725 393 730 399 730 c 0
 405 730 410 725 410 719 c 0
 410 713 405 708 399 708 c 0
 393 708 388 713 388 719 c 0
463 708 m 0
 457 708 452 713 452 719 c 0
 452 725 457 730 463 730 c 0
 469 730 474 725 474 719 c 0
 474 713 469 708 463 708 c 0
526 708 m 0
 520 708 515 713 515 719 c 0
 515 725 520 730 526 730 c 0
 532 730 537 725 537 719 c 0
 537 713 532 708 526 708 c 0
579 719 m 0
 579 725 584 730 590 730 c 0
 596 730 601 725 601 719 c 0
 601 713 596 708 590 708 c 0
 584 708 579 713 579 719 c 0
654 708 m 0
 648 708 643 713 643 719 c 0
 643 725 648 730 654 730 c 0
 660 730 665 725 665 719 c 0
 665 713 660 708 654 708 c 0
718 708 m 0
 712 708 707 713 707 719 c 0
 707 725 712 730 718 730 c 0
 724 730 729 725 729 719 c 0
 729 713 724 708 718 708 c 0
771 719 m 0
 771 725 776 730 782 730 c 0
 788 730 793 725 793 719 c 0
 793 713 788 708 782 708 c 0
 776 708 771 713 771 719 c 0
844 708 m 0
 838 708 833 713 833 719 c 0
 833 725 838 730 844 730 c 0
 850 730 855 725 855 719 c 0
 855 713 850 708 844 708 c 0
897 719 m 0
 897 725 902 730 908 730 c 0
 914 730 919 725 919 719 c 0
 919 713 914 708 908 708 c 0
 902 708 897 713 897 719 c 0
972 708 m 0
 966 708 961 713 961 719 c 0
 961 725 966 730 972 730 c 0
 978 730 983 725 983 719 c 0
 983 713 978 708 972 708 c 0
1036 708 m 0
 1030 708 1025 713 1025 719 c 0
 1025 725 1030 730 1036 730 c 0
 1042 730 1047 725 1047 719 c 0xd6cbf32024552113
 1047 713 1042 708 1036 708 c 0
111 645 m 0
 105 645 100 650 100 656 c 0
 100 662 105 667 111 667 c 0
 117 667 122 662 122 656 c 0
 122 650 117 645 111 645 c 0
164 656 m 0
 164 662 169 667 175 667 c 0
 181 667 186 662 186 656 c 0
 186 650 181 645 175 645 c 0
 169 645 164 650 164 656 c 0
239 645 m 0
 233 645 228 650 228 656 c 0
 228 662 233 667 239 667 c 0
 245 667 250 662 250 656 c 0
 250 650 245 645 239 645 c 0
303 645 m 0
 297 645 292 650 292 656 c 0
 292 662 297 667 303 667 c 0
 309 667 314 662 314 656 c 0
 314 650 309 645 303 645 c 0
356 656 m 0
 356 662 361 667 367 667 c 0
 373 667 378 662 378 656 c 0
 378 650 373 645 367 645 c 0
 361 645 356 650 356 656 c 0
431 645 m 0
 425 645 420 650 420 656 c 0
 420 662 425 667 431 667 c 0
 437 667 442 662 442 656 c 0
 442 650 437 645 431 645 c 0
494 645 m 0
 488 645 483 650 483 656 c 0
 483 662 488 667 494 667 c 0
 500 667 505 662 505 656 c 0
 505 650 500 645 494 645 c 0
547 656 m 0
 547 662 552 667 558 667 c 0
 564 667 569 662 569 656 c 0
 569 650 564 645 558 645 c 0
 552 645 547 650 547 656 c 0
622 645 m 0
 616 645 611 650 611 656 c 0
 611 662 616 667 622 667 c 0
 628 667 633 662 633 656 c 0
 633 650 628 645 622 645 c 0
686 645 m 0
 680 645 675 650 675 656 c 0
 675 662 680 667 686 667 c 0
 692 667 697 662 697 656 c 0
 697 650 692 645 686 645 c 0
739 656 m 0
 739 662 744 667 750 667 c 0
 756 667 761 662 761 656 c 0
 761 650 756 645 750 645 c 0
 744 645 739 650 739 656 c 0
812 645 m 0
 806 645 801 650 801 656 c 0
 801 662 806 667 812 667 c 0
 818 667 823 662 823 656 c 0
 823 650 818 645 812 645 c 0
865 656 m 0
 865 662 870 667 876 667 c 0
 882 667 887 662 887 656 c 0
 887 650 882 645 876 645 c 0
 870 645 865 650 865 656 c 0
940 645 m 0
 934 645 929 650 929 656 c 0
 929 662 934 667 940 667 c 0
 946 667 951 662 951 656 c 0xd6cbf32212a8c424
 951 650 946 645 940 645 c 0
1004 645 m 0
 998 645 993 650 993 656 c 0
 993 662 998 667 1004 667 c 0
 1010 667 1015 662 1015 656 c 0xd6cbf32212a8c453
 1015 650 1010 645 1004 645 c 0
1057 656 m 0
 1057 662 1062 667 1068 667 c 0
 1074 667 1079 662 1079 656 c 0
 1079 650 1074 645 1068 645 c 0
 1062 645 1057 650 1057 656 c 0
143 581 m 0xd6cceb0912a52453
 137 581 132 586 132 592 c 0
 132 598 137 603 143 603 c 0
 149 603 154 598 154 592 c 0
 154 586 149 581 143 581 c 0xd6cceb0912a52453
196 592 m 0
 196 598 201 603 207 603 c 0
 213 603 218 598 218 592 c 0
 218 586 213 581 207 581 c 0
 201 581 196 586 196 592 c 0
271 581 m 0
 265 581 260 586 260 592 c 0
 260 598 265 603 271 603 c 0
 277 603 282 598 282 592 c 0
 282 586 277 581 271 581 c 0
335 581 m 0
 329 581 324 586 324 592 c 0
 324 598 329 603 335 603 c 0
 341 603 346 598 346 592 c 0
 346 586 341 581 335 581 c 0
388 592 m 0
 388 598 393 603 399 603 c 0
 405 603 410 598 410 592 c 0
 410 586 405 581 399 581 c 0
 393 581 388 586 388 592 c 0
463 581 m 0
 457 581 452 586 452 592 c 0
 452 598 457 603 463 603 c 0
 469 603 474 598 474 592 c 0
 474 586 469 581 463 581 c 0
526 581 m 0
 520 581 515 586 515 592 c 0
 515 598 520 603 526 603 c 0
 532 603 537 598 537 592 c 0
 537 586 532 581 526 581 c 0
654 581 m 0
 648 581 643 586 643 592 c 0
 643 598 648 603 654 603 c 0
 660 603 665 598 665 592 c 0
 665 586 660 581 654 581 c 0
718 581 m 0
 712 581 707 586 707 592 c 0
 707 598 712 603 718 603 c 0
 724 603 729 598 729 592 c 0
 729 586 724 581 718 581 c 0
771 592 m 0
 771 598 776 603 782 603 c 0
 788 603 793 598 793 592 c 0
 793 586 788 581 782 581 c 0
 776 581 771 586 771 592 c 0
844 581 m 0
 838 581 833 586 833 592 c 0
 833 598 838 603 844 603 c 0
 850 603 855 598 855 592 c 0
 855 586 850 581 844 581 c 0
897 592 m 0
 897 598 902 603 908 603 c 0
 914 603 919 598 919 592 c 0
 919 586 914 581 908 581 c 0
 902 581 897 586 897 592 c 0
972 581 m 0
 966 581 961 586 961 592 c 0
 961 598 966 603 972 603 c 0
 978 603 983 598 983 592 c 0
 983 586 978 581 972 581 c 0
1036 581 m 0
 1030 581 1025 586 1025 592 c 0
 1025 598 1030 603 1036 603 c 0
 1042 603 1047 598 1047 592 c 0xd6ccf32024a8c113
 1047 586 1042 581 1036 581 c 0
111 517 m 0
 105 517 100 522 100 528 c 0
 100 534 105 539 111 539 c 0
 117 539 122 534 122 528 c 0
 122 522 117 517 111 517 c 0
164 528 m 0
 164 534 169 539 175 539 c 0
 181 539 186 534 186 528 c 0
 186 522 181 517 175 517 c 0
 169 517 164 522 164 528 c 0
239 517 m 0
 233 517 228 522 228 528 c 0
 228 534 233 539 239 539 c 0
 245 539 250 534 250 528 c 0
 250 522 245 517 239 517 c 0
303 517 m 0
 297 517 292 522 292 528 c 0
 292 534 297 539 303 539 c 0
 309 539 314 534 314 528 c 0
 314 522 309 517 303 517 c 0
356 528 m 0
 356 534 361 539 367 539 c 0
 373 539 378 534 378 528 c 0
 378 522 373 517 367 517 c 0
 361 517 356 522 356 528 c 0
431 517 m 0
 425 517 420 522 420 528 c 0
 420 534 425 539 431 539 c 0
 437 539 442 534 442 528 c 0
 442 522 437 517 431 517 c 0
494 517 m 0
 488 517 483 522 483 528 c 0
 483 534 488 539 494 539 c 0
 500 539 505 534 505 528 c 0
 505 522 500 517 494 517 c 0
686 517 m 0
 680 517 675 522 675 528 c 0
 675 534 680 539 686 539 c 0
 692 539 697 534 697 528 c 0
 697 522 692 517 686 517 c 0
739 528 m 0
 739 534 744 539 750 539 c 0
 756 539 761 534 761 528 c 0
 761 522 756 517 750 517 c 0
 744 517 739 522 739 528 c 0
812 517 m 0
 806 517 801 522 801 528 c 0
 801 534 806 539 812 539 c 0
 818 539 823 534 823 528 c 0
 823 522 818 517 812 517 c 0
865 528 m 0
 865 534 870 539 876 539 c 0
 882 539 887 534 887 528 c 0
 887 522 882 517 876 517 c 0
 870 517 865 522 865 528 c 0
940 517 m 0
 934 517 929 522 929 528 c 0
 929 534 934 539 940 539 c 0
 946 539 951 534 951 528 c 0xd6ccf32212a8c424
 951 522 946 517 940 517 c 0
1004 517 m 0
 998 517 993 522 993 528 c 0
 993 534 998 539 1004 539 c 0
 1010 539 1015 534 1015 528 c 0xd6cceb0912a8c453
 1015 522 1010 517 1004 517 c 0
1057 528 m 0
 1057 534 1062 539 1068 539 c 0
 1074 539 1079 534 1079 528 c 0
 1079 522 1074 517 1068 517 c 0
 1062 517 1057 522 1057 528 c 0
143 453 m 0
 137 453 132 458 132 464 c 0
 132 470 137 475 143 475 c 0
 149 475 154 470 154 464 c 0
 154 458 149 453 143 453 c 0
196 464 m 0
 196 470 201 475 207 475 c 0
 213 475 218 470 218 464 c 0
 218 458 213 453 207 453 c 0
 201 453 196 458 196 464 c 0
271 453 m 0
 265 453 260 458 260 464 c 0
 260 470 265 475 271 475 c 0
 277 475 282 470 282 464 c 0
 282 458 277 453 271 453 c 0
335 453 m 0
 329 453 324 458 324 464 c 0
 324 470 329 475 335 475 c 0
 341 475 346 470 346 464 c 0
 346 458 341 453 335 453 c 0
844 453 m 0
 838 453 833 458 833 464 c 0
 833 470 838 475 844 475 c 0
 850 475 855 470 855 464 c 0
 855 458 850 453 844 453 c 0
897 464 m 0
 897 470 902 475 908 475 c 0
 914 475 919 470 919 464 c 0
 919 458 914 453 908 453 c 0
 902 453 897 458 897 464 c 0
972 453 m 0
 966 453 961 458 961 464 c 0
 961 470 966 475 972 475 c 0
 978 475 983 470 983 464 c 0
 983 458 978 453 972 453 c 0
1036 453 m 0
 1030 453 1025 458 1025 464 c 0
 1025 470 1030 475 1036 475 c 0
 1042 475 1047 470 1047 464 c 0xd6ccf32212a8c423
 1047 458 1042 453 1036 453 c 0
111 391 m 0
 105 391 100 396 100 402 c 0
 100 408 105 413 111 413 c 0
 117 413 122 408 122 402 c 0
 122 396 117 391 111 391 c 0
164 402 m 0
 164 408 169 413 175 413 c 0
 181 413 186 408 186 402 c 0
 186 396 181 391 175 391 c 0
 169 391 164 396 164 402 c 0
239 391 m 0
 233 391 228 396 228 402 c 0
 228 408 233 413 239 413 c 0
 245 413 250 408 250 402 c 0
 250 396 245 391 239 391 c 0
940 391 m 0
 934 391 929 396 929 402 c 0
 929 408 934 413 940 413 c 0
 946 413 951 408 951 402 c 0
 951 396 946 391 940 391 c 0
1004 391 m 0
 998 391 993 396 993 402 c 0
 993 408 998 413 1004 413 c 0
 1010 413 1015 408 1015 402 c 0xd6cceb2212a8c453
 1015 396 1010 391 1004 391 c 0
1057 402 m 0
 1057 408 1062 413 1068 413 c 0
 1074 413 1079 408 1079 402 c 0
 1079 396 1074 391 1068 391 c 0
 1062 391 1057 396 1057 402 c 0
143 327 m 0
 137 327 132 332 132 338 c 0
 132 344 137 349 143 349 c 0
 149 349 154 344 154 338 c 0
 154 332 149 327 143 327 c 0
1036 327 m 0
 1030 327 1025 332 1025 338 c 0
 1025 344 1030 349 1036 349 c 0
 1042 349 1047 344 1047 338 c 0xd6ccf32212a8c453
 1047 332 1042 327 1036 327 c 0
111 263 m 0
 105 263 100 268 100 274 c 0
 100 280 105 285 111 285 c 0
 117 285 122 280 122 274 c 0
 122 268 117 263 111 263 c 0
1057 274 m 0
 1057 280 1062 285 1068 285 c 0
 1074 285 1079 280 1079 274 c 0
 1079 268 1074 263 1068 263 c 0
 1062 263 1057 268 1057 274 c 0
EndSplineSet
EndChar
StartChar: uni263A
Encoding: 9786 9786 182
Width: 786
Flags: MW
HStem: -18 187<343 443 343 487.5> 743 20G<229.5 281 505 557>
VStem: 162 187<582 669 556 695> 437 188<582 669 556 695>
LayerCount: 2
Back
Fore
SplineSet
711 412 m 0
 762 401 794 352 784 301 c 0
 746 116 582 -18 393 -18 c 0
 205 -18 41 116 2 299 c 0
 -8 350 24 400 75 410 c 0
 125 421 175 388 186 338 c 0
 206 240 293 169 393 169 c 0
 493 169 581 241 601 339 c 0
 611 389 661 422 711 412 c 0
255 488 m 0
 204 488 162 530 162 582 c 2
 162 669 l 2
 162 721 204 763 255 763 c 0
 307 763 349 721 349 669 c 2
 349 582 l 2
 349 530 307 488 255 488 c 0
531 488 m 0
 479 488 437 530 437 582 c 2
 437 669 l 2
 437 721 479 763 531 763 c 0
 583 763 625 721 625 669 c 2
 625 582 l 2
 625 530 583 488 531 488 c 0
EndSplineSet
EndChar
StartChar: uni2665
Encoding: 9829 9829 183
Width: 900
Flags: MW
HStem: -1 21G<438 462> 760 20G<190.5 299.5 601 710>
LayerCount: 2
Back
Fore
SplineSet
450 -1 m 0
 426 -1 402 8 384 26 c 2
 78 331 l 2
 28 381 0 447 0 517 c 0
 0 662 118 780 263 780 c 0
 336 780 403 749 450 701 c 1
 498 749 564 780 638 780 c 0
 782 780 900 662 900 517 c 0
 900 447 873 381 823 331 c 2
 516 26 l 2
 498 8 474 -1 450 -1 c 0
EndSplineSet
EndChar
StartChar: apple
Encoding: 63743 63743 184
Width: 0
Flags: MW
HStem: 436 43<646 654.5 644.5 666> 450 29
VStem: 0 88<497.5 510.5 490.5 519.5> 675 88<488.5 501.5 479.5 508.5>
LayerCount: 2
Back
Fore
SplineSet
567 519 m 1xb0
 589 536 l 2
 593 539 597 535 595 531 c 2
 580 507 l 1
 636 448 587 364 575 374 c 2
 514 429 l 1
 510 424 l 1
 558 375 584 304 572 230 c 0
 560 156 514 97 452 65 c 1
 465 16 l 2
 467 11 461 9 458 13 c 2
 431 55 l 1
 395 42 355 37 315 43 c 0
 275 50 238 66 209 91 c 1
 170 59 l 2
 165 55 161 60 164 64 c 2
 191 106 l 1
 142 155 116 227 128 300 c 0
 140 374 186 433 247 465 c 1
 245 472 l 1
 170 438 l 2
 156 432 135 528 207 566 c 1
 200 593 l 2
 198 598 204 601 207 596 c 2
 222 573 l 1
 299 600 356 521 342 515 c 2
 267 482 l 1
 270 475 l 1
 304 488 341 493 378 488 c 1
 381 506 l 1
 380 506 l 2
 371 507 366 515 367 523 c 0
 368 532 376 537 384 536 c 2
 401 533 l 2
 409 532 415 524 414 516 c 0
 412 508 405 502 396 503 c 1
 395 504 l 1
 392 486 l 1
 430 479 463 463 491 440 c 1
 496 446 l 1
 435 500 l 2
 423 511 503 568 567 519 c 1xb0
131 440 m 1
 127 436 l 1
 108 449 74 480 74 521 c 0
 74 534 83 563 110 563 c 0
 124 563 133 552 133 542 c 0
 133 529 124 520 112 520 c 0
 103 520 99 523 95 527 c 1
 94 524 88 517 88 504 c 0
 88 477 112 455 131 440 c 1
632 559 m 1
 635 563 l 1
 654 550 688 519 688 478 c 0
 688 465 679 436 653 436 c 0
 639 436 630 447 630 457 c 0
 630 470 639 479 650 479 c 0
 659 479 663 476 667 472 c 1
 669 475 675 482 675 495 c 0
 675 522 650 544 632 559 c 1
717 550 m 1
 720 554 l 1
 735 543 763 518 763 485 c 0
 763 474 755 450 734 450 c 0x70
 723 450 715 459 715 468 c 0
 715 478 723 485 732 485 c 0
 739 485 742 483 746 479 c 1
 747 482 752 488 752 499 c 0
 752 520 732 538 717 550 c 1
46 449 m 1
 43 445 l 1
 28 456 0 481 0 514 c 0
 0 525 7 549 29 549 c 0
 40 549 47 540 47 531 c 0
 47 521 40 514 31 514 c 0
 23 514 20 516 17 520 c 1
 16 517 11 511 11 501 c 0
 11 479 31 461 46 449 c 1
540 235 m 0
 557 340 485 439 380 455 c 0
 275 472 177 400 160 295 c 0
 143 190 215 92 320 75 c 0
 425 58 524 130 540 235 c 0
367 413 m 2
 371 439 l 2
 373 447 385 445 383 437 c 2
 379 411 l 2
 378 403 366 405 367 413 c 2
293 430 m 2
 303 406 l 2
 305 398 294 394 291 401 c 2
 282 426 l 2
 279 434 290 438 293 430 c 2
410 369 m 1
 465 412 l 1
 437 349 l 1
 436 362 l 1
 363 268 l 2
 363 267 363 265 363 263 c 0
 362 257 358 253 352 252 c 1
 308 114 l 2
 306 107 294 111 297 118 c 2
 341 256 l 2
 338 259 336 263 337 267 c 0
 337 269 338 271 339 272 c 2
 318 344 l 1
 314 334 l 1
 311 404 l 1
 345 343 l 1
 336 349 l 1
 354 284 l 1
 423 372 l 1
 410 369 l 1
218 380 m 2
 239 363 l 2
 245 358 237 349 231 354 c 2
 211 370 l 2
 204 375 212 385 218 380 c 2
486 324 m 2
 511 333 l 2
 518 336 523 325 515 322 c 2
 491 313 l 2
 483 310 479 321 486 324 c 2
179 298 m 2
 205 294 l 2
 213 293 211 281 203 282 c 2
 177 287 l 2
 169 288 171 300 179 298 c 2
355 264 m 0
 356 267 354 270 351 270 c 0
 348 271 346 269 345 266 c 0
 345 263 347 261 349 260 c 0
 352 260 355 262 355 264 c 0
498 248 m 2
 524 244 l 2
 531 243 530 231 522 232 c 2
 496 236 l 2
 488 237 490 249 498 248 c 2
185 208 m 2
 209 218 l 2
 217 221 221 209 214 206 c 2
 189 197 l 2
 182 194 177 205 185 208 c 2
469 177 m 2
 490 160 l 2
 496 155 488 146 482 151 c 2
 462 167 l 2
 455 172 463 182 469 177 c 2
236 133 m 2
 252 154 l 2
 257 160 267 152 261 146 c 2
 245 126 l 2
 240 119 231 127 236 133 c 2
409 129 m 2
 418 104 l 2
 421 97 410 93 407 100 c 2
 398 125 l 2
 395 132 406 136 409 129 c 2
317 94 m 2
 321 120 l 2
 322 128 334 126 333 118 c 2
 329 92 l 2
 328 84 316 86 317 94 c 2
EndSplineSet
EndChar
StartChar: O.alt1
Encoding: 65537 -1 103
Width: 543
Flags: MW
HStem: -18 187<251 292.5 251 344> 593 187<260.5 283>
VStem: 10 187<223.5 245.5 245.5 248.5> 346 187<244 248.5 171.5 252 171.5 253 171.5 253>
LayerCount: 2
Back
Fore
SplineSet
501 573 m 2
 501 573 532 272 532 272 c 1
 532 272 532 272 532 272 c 1
 533 263 533 253 533 244 c 0
 533 99 416 -18 272 -18 c 0
 127 -18 10 99 10 244 c 0
 10 253 10 263 11 272 c 1
 11 272 11 272 11 272 c 1
 11 272 42 573 42 573 c 2
 54 691 153 780 272 780 c 0
 390 780 489 691 501 573 c 2
346 252 m 2
 346 252 346 252 346 253 c 2
 346 253 315 554 315 554 c 2
 313 576 294 593 272 593 c 0
 249 593 231 576 228 554 c 2
 197 253 l 2
 197 252 197 252 197 252 c 2
 197 249 197 247 197 244 c 0
 197 203 230 169 272 169 c 0
 313 169 346 203 346 244 c 0
 346 246 346 249 346 252 c 2
EndSplineSet
EndChar
